<?xml version="1.0" encoding="UTF-8" standalone="no"?>
<!-- Created with Inkscape (http://www.inkscape.org/) -->

<svg
   xmlns:dc="http://purl.org/dc/elements/1.1/"
   xmlns:cc="http://creativecommons.org/ns#"
   xmlns:rdf="http://www.w3.org/1999/02/22-rdf-syntax-ns#"
   xmlns:svg="http://www.w3.org/2000/svg"
   xmlns="http://www.w3.org/2000/svg"
   xmlns:sodipodi="http://sodipodi.sourceforge.net/DTD/sodipodi-0.dtd"
   xmlns:inkscape="http://www.inkscape.org/namespaces/inkscape"
   width="76"
   height="80"
   viewBox="0 0 76 80"
   id="svg2"
   version="1.1"
   inkscape:version="0.91 r13725"
   sodipodi:docname="four.svg"
   inkscape:export-filename="/home/william/kernel4task/website/kernel4task/assets/images/svg_logo.svg.png"
   inkscape:export-xdpi="39"
   inkscape:export-ydpi="39">
  <defs
     id="defs4" />
  <sodipodi:namedview
     id="base"
     pagecolor="#ffffff"
     bordercolor="#666666"
     borderopacity="1.0"
     inkscape:pageopacity="0.0"
     inkscape:pageshadow="2"
     inkscape:zoom="1.4"
     inkscape:cx="43.335959"
     inkscape:cy="40.641594"
     inkscape:document-units="px"
     inkscape:current-layer="layer1"
     showgrid="false"
     inkscape:window-width="1301"
     inkscape:window-height="744"
     inkscape:window-x="65"
     inkscape:window-y="24"
     inkscape:window-maximized="1"
     units="px" />
  <metadata
     id="metadata7">
    <rdf:RDF>
      <cc:Work
         rdf:about="">
        <dc:format>image/svg+xml</dc:format>
        <dc:type
           rdf:resource="http://purl.org/dc/dcmitype/StillImage" />
        <dc:title />
      </cc:Work>
    </rdf:RDF>
  </metadata>
  <g
     inkscape:label="Camada 1"
     inkscape:groupmode="layer"
     id="layer1"
     transform="translate(0,-972.36216)">
    <path
       style="fill:#800000;fill-opacity:1;stroke:none"
       d="m 142.80643,1047.2713 c -98.553154,1.1161 -49.276581,0.5581 0,0 z m -70.181245,-33.5156 c 0.30489,-20.27205 -0.110319,-29.17802 -1.42567,-30.5803 -1.436671,-1.53167 -5.834722,-1.88932 -19.471448,-1.58353 l -17.61561,0.39505 0,23.86738 c 0,23.6826 0.02768,23.8709 3.570244,24.3161 3.562305,0.4476 3.570237,0.4031 3.570237,-20.0066 l 0,-20.45504 11.900804,0 11.90079,0 0,23.16544 0,23.1654 -26.975142,0 -26.975143,0 0,-19.7531 c 0,-19.68183 -0.01292,-19.75163 -3.5702373,-19.30463 -3.497737,0.4395 -3.579189,0.8751 -4.011228,21.44643 -0.242546,11.5488 -0.08099,21.8279 0.359043,22.8425 0.633341,1.4603 7.8333053,1.7656 34.5566083,1.4657 l 33.756587,-0.3791 z m 33.332405,25.7142 c 6.45169,-3.9984 3.15753,-10.387 -6.390721,-12.3943 -5.45159,-1.1459 -5.72447,-3.6717 -0.39671,-3.6717 2.181821,0 3.966951,0.6317 3.966951,1.404 0,0.7722 1.07107,1.4039 2.38016,1.4039 2.8566,0 3.12362,-2.9924 0.47602,-5.335 -2.63891,-2.3349 -11.586221,-2.1134 -13.891121,0.3439 -3.49295,3.7239 -1.33479,8.3672 4.68783,10.086 6.302651,1.7988 8.593051,6.1369 3.240101,6.1369 -1.836821,0 -3.750701,-0.9477 -4.253051,-2.106 -1.01068,-2.3303 -6.92091,-2.9298 -6.92091,-0.7019 0,2.5783 6.30233,7.0197 9.96096,7.0197 1.987631,0 5.200841,-0.9834 7.140491,-2.1855 z m 23.4913,-1.0672 4.27393,-3.2528 3.67629,3.2528 c 10.61025,9.3879 25.9124,-4.811 16.5429,-15.3503 -3.42549,-3.8529 -11.08786,-5.2517 -15.26166,-2.7859 -2.5775,1.5229 -5.39456,6.7557 -5.39456,10.0208 0,1.9549 -0.7469,2.6026 -2.36678,2.0526 -1.32455,-0.4496 -2.77608,0.1402 -3.29623,1.3396 -1.2944,2.9844 -5.42397,4.1229 -8.0257,2.2124 -3.05114,-2.2405 -2.82773,-10.9519 0.30819,-12.0166 1.36794,-0.4644 4.15374,-0.055 6.1906,0.9093 5.42974,2.5709 7.76223,1.3711 4.74455,-2.441 -1.70889,-2.1587 -4.09126,-3.1448 -7.56194,-3.13 -6.46329,0.027 -8.42102,1.1771 -10.587,6.2177 -2.26593,5.2732 -0.68234,11.4511 3.61852,14.1164 4.73798,2.9363 8.16913,2.6373 13.13889,-1.145 z m 11.85679,-2.9734 c -1.03913,-1.1078 -1.66209,-4.1088 -1.38438,-6.6688 0.44877,-4.1366 1.03483,-4.6546 5.26529,-4.6546 4.23046,0 4.81653,0.518 5.26528,4.6546 0.52372,4.8275 -1.81418,8.6831 -5.26528,8.6831 -1.09537,0 -2.84177,-0.9065 -3.88091,-2.0143 z m 85.59974,3.4182 c 5.90771,-5.227 3.15576,-7.5101 -4.03072,-3.3438 -3.15648,1.83 -4.3806,1.933 -6.29125,0.53 -4.1405,-3.0404 -2.59918,-4.206 5.56164,-4.206 7.19825,0 7.93388,-0.2965 7.93388,-3.1975 0,-5.5136 -4.32617,-9.4382 -10.40399,-9.4382 -7.23308,0 -11.81084,4.1061 -11.81084,10.5935 0,9.6429 11.95457,15.3323 19.04128,9.062 z m -12.30544,-12.9866 c 0.97878,-2.6296 6.74482,-2.8959 9.06835,-0.4188 1.77821,1.8958 1.28708,2.1737 -3.84133,2.1737 -3.99472,0 -5.67078,-0.5627 -5.22702,-1.7549 z m 36.10704,12.9866 c 3.74414,-3.3127 4.16312,-7.0198 0.79338,-7.0198 -1.30909,0 -2.38016,0.6096 -2.38016,1.3546 0,0.745 -1.47375,2.0524 -3.27498,2.9053 -5.88056,2.7847 -9.93586,-3.3923 -6.86928,-10.4629 1.21493,-2.8013 6.84915,-2.8879 9.17595,-0.141 1.19413,1.4096 2.50817,1.6635 4.07876,0.7876 3.61786,-2.0173 -2.3801,-7.0793 -8.38845,-7.0793 -7.1082,0 -10.58973,3.5333 -10.58973,10.7474 0,7.0754 4.08529,11.716 10.31403,11.716 2.18181,0 5.39503,-1.2635 7.14048,-2.8079 z m 15.22312,1.191 c 0.62119,-0.8894 -0.0508,-2.3804 -1.49313,-3.3137 -3.44181,-2.2268 -3.62506,-12.6801 -0.24242,-13.8286 1.30908,-0.4444 2.38016,-1.4597 2.38016,-2.2562 0,-0.7964 -1.07108,-1.448 -2.38016,-1.448 -1.47292,0 -2.38016,-1.3211 -2.38016,-3.4658 0,-2.504 -0.66059,-3.2416 -2.38016,-2.6577 -1.30909,0.4444 -2.38017,2.004 -2.38017,3.4657 0,1.4619 -0.71404,2.6578 -1.58676,2.6578 -0.87274,0 -1.58678,0.9477 -1.58678,2.106 0,1.1582 0.71404,2.1059 1.58678,2.1059 0.87272,0 1.58676,3.4434 1.58676,7.652 0,5.8066 0.66971,7.9972 2.77686,9.0831 3.63136,1.8715 4.73448,1.8533 6.09918,-0.1001 z M 85.682589,1029.7218 c 0,-8.4238 -0.47603,-10.5298 -2.38016,-10.5298 -1.904125,0 -2.380162,2.106 -2.380162,10.5298 0,8.4237 0.476037,10.5297 2.380162,10.5297 1.90413,0 2.38016,-2.106 2.38016,-10.5297 z m 79.656181,2.457 c 0.4458,-7.5629 0.72652,-8.0729 4.4428,-8.0729 3.71629,0 3.99702,0.51 4.44281,8.0729 0.34916,5.9227 1.0887,8.0727 2.77686,8.0727 3.09432,0 3.28663,-17.1839 0.21753,-19.4376 -1.14589,-0.8415 -5.43017,-1.4704 -9.52064,-1.3979 l -7.4372,0.1321 0,10.3518 c 0,8.1071 0.49891,10.3516 2.30098,10.3516 1.68817,0 2.42769,-2.15 2.77686,-8.0727 z m 25.38837,0 c 0.42156,-7.1515 0.88339,-8.1241 4.04611,-8.5215 3.36602,-0.423 3.57025,0.04 3.57025,8.0727 0,7.5855 0.34858,8.5215 3.17354,8.5215 2.79342,0 3.17354,-0.936 3.17354,-7.8141 0,-11.6121 -1.51429,-13.2659 -11.95196,-13.053 l -8.67607,0.1769 0,10.3451 c 0,9.3209 0.30635,10.3451 3.09435,10.3451 2.65402,0 3.16208,-1.1488 3.57024,-8.0727 z M 85.682589,1013.5761 c 0,-1.5599 -1.05785,-2.8079 -2.38016,-2.8079 -1.322316,0 -2.380162,1.248 -2.380162,2.8079 0,1.56 1.057846,2.8079 2.380162,2.8079 1.32231,0 2.38016,-1.2479 2.38016,-2.8079 z M 11.104247,991.11265 c 0,-2.05914 -1.057841,-2.80789 -3.9669333,-2.80789 -2.909086,0 -3.966934,0.74875 -3.966934,2.80789 0,2.05915 1.057848,2.808 3.966934,2.808 2.9090923,0 3.9669333,-0.74885 3.9669333,-2.808 z"
       id="path4147"
       inkscape:connector-curvature="0"
       sodipodi:nodetypes="ccssscssscccccccssscscssssssssssssssscsssssssscssssssssssssssssssssssssssssssssssccsssscsssssscsssssssssssscssssssssscssssssssssss" />
  </g>
</svg>
