<?xml version="1.0" encoding="UTF-8" standalone="no"?>
<!-- Created with Inkscape (http://www.inkscape.org/) -->

<svg
   xmlns:dc="http://purl.org/dc/elements/1.1/"
   xmlns:cc="http://creativecommons.org/ns#"
   xmlns:rdf="http://www.w3.org/1999/02/22-rdf-syntax-ns#"
   xmlns:svg="http://www.w3.org/2000/svg"
   xmlns="http://www.w3.org/2000/svg"
   xmlns:sodipodi="http://sodipodi.sourceforge.net/DTD/sodipodi-0.dtd"
   xmlns:inkscape="http://www.inkscape.org/namespaces/inkscape"
   width="490"
   height="140"
   viewBox="0 0 490 140"
   id="svg2"
   version="1.1"
   inkscape:version="0.91 r13725"
   sodipodi:docname="logotype.svg">
  <defs
     id="defs4" />
  <sodipodi:namedview
     id="base"
     pagecolor="#ffffff"
     bordercolor="#666666"
     borderopacity="1.0"
     inkscape:pageopacity="0.0"
     inkscape:pageshadow="2"
     inkscape:zoom="1.4"
     inkscape:cx="145.26766"
     inkscape:cy="37.517072"
     inkscape:document-units="px"
     inkscape:current-layer="layer1"
     showgrid="false"
     showguides="false"
     inkscape:window-width="1301"
     inkscape:window-height="744"
     inkscape:window-x="65"
     inkscape:window-y="24"
     inkscape:window-maximized="1"
     units="px" />
  <metadata
     id="metadata7">
    <rdf:RDF>
      <cc:Work
         rdf:about="">
        <dc:format>image/svg+xml</dc:format>
        <dc:type
           rdf:resource="http://purl.org/dc/dcmitype/StillImage" />
        <dc:title></dc:title>
      </cc:Work>
    </rdf:RDF>
  </metadata>
  <g
     inkscape:label="Camada 1"
     inkscape:groupmode="layer"
     id="layer1"
     transform="translate(0,-912.36216)">
    <path
       style="fill:#940000;fill-opacity:1"
       d="m 4.2857224,983.07649 0,-66.96428 241.4285676,0 241.42857,0 0,66.96428 0,66.96431 -241.42857,0 -241.4285676,0 z M 129.64776,986.0976 c 0.50423,-38.67611 -0.18244,-55.66751 -2.35779,-58.34293 -2.37598,-2.92215 -9.64953,-3.60454 -32.202099,-3.0211 l -29.132899,0.75364 0,45.53571 c 0,45.18288 0.0458,45.54238 5.90451,46.39168 5.89138,0.854 5.9045,0.7692 5.9045,-38.16966 l 0,-39.02559 19.681679,0 19.681669,0 0,44.19643 0,44.19642 -44.611798,0 -44.6118,0 0,-37.68629 c 0,-37.54997 -0.0214,-37.68319 -5.9045,-36.83036 -5.78459,0.83857 -5.9193,1.66948 -6.63381,40.91683 -0.40113,22.03352 -0.13394,41.64462 0.59379,43.58032 1.04742,2.786 12.95481,3.3686 57.15011,2.7962 l 55.827018,-0.7231 z m 55.12549,49.0592 c 10.6699,-7.6283 5.22197,-19.8171 -10.56905,-23.6466 -9.01587,-2.1864 -9.46717,-7.0051 -0.65606,-7.0051 3.60831,0 6.56056,1.2053 6.56056,2.6786 0,1.4732 1.77135,2.6785 3.93634,2.6785 4.72429,0 5.16588,-5.7092 0.78726,-10.17854 -4.36427,-4.45468 -19.16141,-4.03207 -22.97329,0.65614 -5.77667,7.1046 -2.20748,15.9635 7.7528,19.2428 10.42337,3.4318 14.21126,11.7082 5.35849,11.7082 -3.03776,0 -6.20295,-1.808 -7.03373,-4.0179 -1.67147,-4.4459 -11.44588,-5.5896 -11.44588,-1.3392 0,4.9191 10.42287,13.3928 16.47355,13.3928 3.28715,0 8.6012,-1.8764 11.80901,-4.1697 z m 38.8502,-2.0361 7.06827,-6.2058 6.07989,6.2058 c 17.54734,17.9107 42.8542,-9.1789 27.35881,-29.2861 -5.66509,-7.35113 -18.33721,-10.0198 -25.23989,-5.31534 -4.2627,2.90534 -8.92158,12.88904 -8.92158,19.11854 0,3.7295 -1.23523,4.9653 -3.91421,3.916 -2.19055,-0.858 -4.59111,0.2674 -5.45135,2.5556 -2.14069,5.694 -8.97021,7.866 -13.27297,4.2211 -5.04602,-4.2746 -4.67655,-20.8948 0.50967,-22.9261 2.26233,-0.8861 6.8695,-0.1054 10.2381,1.7346 8.97974,4.9053 12.83726,2.616 7.84658,-4.6568 -2.82618,-4.11854 -6.76617,-5.99993 -12.50602,-5.97183 -10.68907,0.052 -13.9268,2.24599 -17.50891,11.86273 -3.74743,10.0606 -1.12847,21.847 5.98435,26.9322 7.83574,5.6021 13.51021,5.0316 21.72926,-2.1846 z m 19.60889,-5.6728 c -1.71853,-2.1136 -2.7488,-7.839 -2.2895,-12.7232 0.74216,-7.8919 1.7114,-8.8803 8.70779,-8.8803 6.99639,0 7.96563,0.9884 8.70778,8.8803 0.86614,9.2104 -3.00031,16.5661 -8.70778,16.5661 -1.81154,0 -4.69976,-1.7293 -6.41829,-3.8429 z m 141.5658,6.5215 c 9.77024,-9.9726 5.21904,-14.3283 -6.66603,-6.3796 -5.22023,3.4913 -7.2447,3.688 -10.40456,1.0113 -6.84761,-5.8007 -4.29854,-8.0246 9.19792,-8.0246 11.90453,0 13.12112,-0.5656 13.12112,-6.1004 0,-10.5192 -7.15466,-18.00673 -17.20624,-18.00673 -11.96213,0 -19.53289,7.83363 -19.53289,20.21103 0,18.3973 19.77061,29.2518 31.49068,17.289 z m -20.35087,-24.7768 c 1.61872,-5.017 11.15465,-5.525 14.99733,-0.7989 2.94083,3.6169 2.1286,4.1471 -6.35283,4.1471 -6.60651,0 -9.3784,-1.0736 -8.6445,-3.3482 z m 59.71423,24.7768 c 6.19211,-6.3204 6.88501,-13.3929 1.31211,-13.3929 -2.16499,0 -3.93634,1.163 -3.93634,2.5843 0,1.4214 -2.43729,3.9158 -5.41618,5.5431 -9.72534,5.3126 -16.43205,-6.472 -11.3605,-19.9619 2.00925,-5.3445 11.32718,-5.5097 15.17528,-0.269 1.97486,2.6895 4.14805,3.1737 6.74551,1.5028 5.98325,-3.849 -3.93623,-13.50643 -13.87293,-13.50643 -11.75561,0 -17.51341,6.74113 -17.51341,20.50443 0,13.499 6.7563,22.3527 17.05745,22.3527 3.60831,0 8.92236,-2.4107 11.80901,-5.3571 z m 25.17617,2.2722 c 1.02733,-1.6967 -0.084,-4.5416 -2.46935,-6.3221 -5.69211,-4.2484 -5.99518,-24.1919 -0.40092,-26.383 2.16498,-0.848 3.93633,-2.785 3.93633,-4.30454 0,-1.5194 -1.77135,-2.76259 -3.93633,-2.76259 -2.43593,0 -3.93634,-2.52045 -3.93634,-6.61238 0,-4.77718 -1.09249,-6.18446 -3.93633,-5.07056 -2.16499,0.84797 -3.93634,3.82354 -3.93634,6.61236 0,2.7888 -1.1809,5.07058 -2.62422,5.07058 -1.44333,0 -2.62423,1.80799 -2.62423,4.01783 0,2.2099 1.1809,4.0179 2.62423,4.0179 1.44332,0 2.62422,6.5696 2.62422,14.599 0,11.0781 1.10757,15.2575 4.59239,17.3293 6.00559,3.5704 7.82993,3.5357 10.08689,-0.1918 z m -298.09543,-19.6829 c 0,-16.0715 -0.78727,-20.08933 -3.93633,-20.08933 -3.14907,0 -3.93634,4.01783 -3.93634,20.08933 0,16.0714 0.78727,20.0892 3.93634,20.0892 3.14906,0 3.93633,-4.0178 3.93633,-20.0892 z m 131.73628,4.6875 c 0.73728,-14.4287 1.20154,-15.4018 7.34757,-15.4018 6.14604,0 6.6103,0.9731 7.34756,15.4018 0.57743,11.2998 1.80051,15.4017 4.59239,15.4017 5.11744,0 5.43548,-32.7846 0.35977,-37.08434 -1.89509,-1.6053 -8.98049,-2.80539 -15.74534,-2.66679 l -12.29972,0.25199 0,19.74964 c 0,15.4674 0.8251,19.7495 3.80538,19.7495 2.7919,0 4.01495,-4.1019 4.59239,-15.4017 z m 41.98758,0 c 0.69718,-13.6439 1.46095,-15.4995 6.69151,-16.2578 5.56676,-0.8069 5.90451,0.074 5.90451,15.4018 0,14.472 0.57649,16.2577 5.24844,16.2577 4.61979,0 5.24845,-1.7857 5.24845,-14.9082 0,-22.15434 -2.50435,-25.30953 -19.7663,-24.90333 l -14.3486,0.33759 0,19.73704 c 0,17.7829 0.50666,19.7369 5.11748,19.7369 4.38926,0 5.22949,-2.1917 5.90451,-15.4017 z M 151.24224,985.75507 c 0,-2.9762 -1.74947,-5.35715 -3.93633,-5.35715 -2.18686,0 -3.93634,2.38095 -3.93634,5.35715 0,2.97619 1.74948,5.35714 3.93634,5.35714 2.18686,0 3.93633,-2.38095 3.93633,-5.35714 z M 27.903732,942.89792 c 0,-3.92856 -1.74947,-5.35714 -6.56056,-5.35714 -4.81108,0 -6.56056,1.42858 -6.56056,5.35714 0,3.92857 1.74948,5.35715 6.56056,5.35715 4.81109,0 6.56056,-1.42858 6.56056,-5.35715 z"
       id="path4147"
       inkscape:connector-curvature="0"
       sodipodi:nodetypes="cccccccccssscssscccccccssscscssssssssssssssscsssssssscssssssssssssssssssssssssssssssssssccsssscssssssccssssssssssscssssssssscsssssssssssss" />
  </g>
</svg>
