<?xml version="1.0" encoding="UTF-8" standalone="no"?>
<!-- Created with Inkscape (http://www.inkscape.org/) -->

<svg
   xmlns:dc="http://purl.org/dc/elements/1.1/"
   xmlns:cc="http://creativecommons.org/ns#"
   xmlns:rdf="http://www.w3.org/1999/02/22-rdf-syntax-ns#"
   xmlns:svg="http://www.w3.org/2000/svg"
   xmlns="http://www.w3.org/2000/svg"
   xmlns:sodipodi="http://sodipodi.sourceforge.net/DTD/sodipodi-0.dtd"
   xmlns:inkscape="http://www.inkscape.org/namespaces/inkscape"
   width="400"
   height="100"
   viewBox="0 0 400 100"
   id="svg2"
   version="1.1"
   inkscape:version="0.91 r13725"
   sodipodi:docname="windows_microsoft.svg">
  <defs
     id="defs4" />
  <sodipodi:namedview
     id="base"
     pagecolor="#ffffff"
     bordercolor="#666666"
     borderopacity="1.0"
     inkscape:pageopacity="0.0"
     inkscape:pageshadow="2"
     inkscape:zoom="0.49497475"
     inkscape:cx="298.96813"
     inkscape:cy="295.27232"
     inkscape:document-units="px"
     inkscape:current-layer="layer1"
     showgrid="false"
     units="px"
     inkscape:window-width="1301"
     inkscape:window-height="744"
     inkscape:window-x="65"
     inkscape:window-y="24"
     inkscape:window-maximized="1" />
  <metadata
     id="metadata7">
    <rdf:RDF>
      <cc:Work
         rdf:about="">
        <dc:format>image/svg+xml</dc:format>
        <dc:type
           rdf:resource="http://purl.org/dc/dcmitype/StillImage" />
        <dc:title></dc:title>
      </cc:Work>
    </rdf:RDF>
  </metadata>
  <g
     inkscape:label="Camada 1"
     inkscape:groupmode="layer"
     id="layer1"
     transform="translate(0,-952.36216)">
    <g
       id="g4149"
       transform="matrix(1.4736163,0,0,1.3670886,-387.39752,327.78851)"
       inkscape:export-xdpi="39"
       inkscape:export-ydpi="39">
      <path
         style="fill:#cecdce"
         d="M 275.47712,517.53042 C 275.10903,517.39318 275,514.70829 275,505.78126 c 0,-10.22614 0.0702,-11.59615 0.60376,-11.78534 1.073,-0.38045 23.05665,-0.24125 23.8499,0.15101 0.70615,0.34919 0.7383,0.85296 0.7383,11.56786 0,8.24303 -0.12101,11.31458 -0.45803,11.62599 -0.33762,0.31195 -3.52355,0.41589 -12.11886,0.39537 -6.41346,-0.0153 -11.87553,-0.1079 -12.13795,-0.20573 z m 27.26294,-0.20728 c -0.59431,-0.40222 -0.6425,-1.42966 -0.55007,-11.72656 l 0.1013,-11.28572 12.50056,-0.093 12.50056,-0.093 0,11.60548 c 0,10.25733 -0.0701,11.63034 -0.60376,11.81955 -0.33207,0.11774 -5.70979,0.21407 -11.95049,0.21407 -8.47551,0 -11.51155,-0.11155 -11.9981,-0.44085 z m 95.16372,-9.41099 c -1.91861,-0.53925 -3.37853,-1.44502 -4.89528,-3.03713 -2.1464,-2.25307 -2.86884,-4.4476 -2.66212,-8.0867 0.28692,-5.051 2.82436,-8.45164 7.52958,-10.09106 2.66298,-0.92784 8.07606,-0.8467 9.71515,0.14563 0.91156,0.55187 1.00264,0.81449 1.00264,2.89128 0,2.18672 -0.0398,2.28428 -0.93172,2.28428 -0.51244,0 -1.02927,-0.14586 -1.14852,-0.32413 -0.40887,-0.61127 -3.84182,-1.07694 -5.26417,-0.71407 -3.11492,0.79469 -4.62384,2.8597 -4.63678,6.34561 -0.01,2.69994 0.98744,4.56606 2.95275,5.52419 1.66601,0.81221 4.67206,0.74928 6.54741,-0.13707 0.83973,-0.39689 1.74149,-0.65107 2.00391,-0.56484 0.53184,0.17475 0.66801,3.85919 0.16942,4.58426 -0.84311,1.22608 -7.51858,1.98462 -10.38227,1.17975 z m 34.09721,-0.24801 c -2.29623,-0.75178 -4.82462,-2.95831 -5.89003,-5.14021 -1.29523,-2.65258 -1.2887,-7.71704 0.0134,-10.42769 1.16825,-2.43192 4.03573,-4.831 6.62258,-5.54082 2.51203,-0.68928 6.47278,-0.67917 9.03196,0.023 2.73527,0.75054 5.37871,3.17743 6.33196,5.81325 0.91467,2.52916 0.91319,6.60343 -0.003,9.13778 -0.91473,2.52935 -3.83442,5.29032 -6.47289,6.12099 -2.33174,0.7341 -7.41122,0.74131 -9.63369,0.0136 z m 8.17019,-4.91014 c 1.56045,-0.94358 2.19204,-2.56337 2.19204,-5.62171 0,-4.34453 -1.64704,-6.28579 -5.33309,-6.28579 -3.77476,0 -5.71999,2.48055 -5.47406,6.98048 0.11606,2.1235 0.31448,2.75743 1.1982,3.82796 0.58251,0.70566 1.61112,1.43737 2.28579,1.62603 1.50331,0.42038 3.98614,0.16539 5.13112,-0.52697 z m 12.57953,5.14849 c -1.89172,-0.55874 -2.17036,-0.99348 -2.17036,-3.38632 0,-1.22562 0.15509,-2.31697 0.34463,-2.42521 0.18954,-0.10824 1.26306,0.19826 2.3856,0.6811 2.38547,1.02607 5.29225,1.18075 6.21238,0.33058 1.31767,-1.2175 0.59332,-2.08603 -3.21274,-3.85223 -3.65039,-1.69395 -5.18296,-3.06185 -5.57084,-4.97227 -0.6296,-3.1009 0.83175,-5.87647 3.86913,-7.3487 1.21685,-0.58982 2.20352,-0.73 5.13256,-0.72922 4.94833,10e-4 5.34375,0.24 5.34375,3.22558 l 0,2.32003 -1.04967,-0.19296 c -0.57731,-0.10614 -1.84403,-0.3844 -2.81494,-0.61837 -2.08552,-0.50256 -3.59073,-0.23604 -4.15343,0.73544 -0.67747,1.16964 0.17781,2.00087 3.62124,3.5194 4.34629,1.9167 5.35104,3.11584 5.35104,6.38629 0,2.73587 -0.56993,3.7013 -3.19948,5.41974 -1.47573,0.9644 -1.89029,1.05307 -5.30778,1.13523 -2.03886,0.049 -4.19036,-0.0536 -4.78109,-0.22811 z m 22.02361,-0.23116 c -3.96226,-1.29839 -6.585,-4.8235 -6.91682,-9.29659 -0.5877,-7.92251 4.481,-12.69936 13.03508,-12.28451 5.05162,0.24498 7.67046,1.83299 9.67821,5.86864 0.8443,1.69709 0.91989,2.22934 0.77638,5.46652 -0.13359,3.01348 -0.3208,3.87582 -1.17197,5.39838 -1.22902,2.19845 -3.58153,4.13125 -5.92721,4.86974 -2.18589,0.68818 -7.34273,0.67611 -9.47367,-0.0222 z m 8.14686,-4.91733 c 1.52396,-0.92151 2.18742,-2.57202 2.18893,-5.44537 0.002,-4.36495 -1.72747,-6.46213 -5.32998,-6.46213 -3.54904,0 -5.5346,2.25407 -5.5346,6.28307 0,3.5028 1.15706,5.44565 3.68053,6.18008 1.36982,0.39867 3.8784,0.11962 4.99512,-0.55565 z m 28.33056,4.69294 c -2.54719,-1.58605 -2.82968,-2.50837 -2.97012,-9.69746 l -0.12573,-6.43638 -3.40496,0 -3.40495,0 0,7.86473 c 0,5.64677 -0.12918,7.98408 -0.45804,8.28795 -0.265,0.24485 -1.53467,0.42321 -3.01273,0.42321 -1.97744,0 -2.60705,-0.12605 -2.78639,-0.55786 -0.12742,-0.30683 -0.23168,-4.0364 -0.23168,-8.28795 l 0,-7.73008 -1.24051,-0.005 c -1.98188,-0.009 -2.24997,-0.34655 -2.12018,-2.6724 l 0.11627,-2.08336 1.56847,-0.10603 1.56847,-0.10602 0.22751,-2.50748 c 0.31064,-3.42359 1.61047,-5.39146 4.4352,-6.71462 1.49698,-0.70123 2.63999,-0.96987 4.12648,-0.96987 3.12036,0 3.53257,0.33068 3.53257,2.83383 0,1.4311 -0.15254,2.11369 -0.47712,2.13501 -0.26241,0.0172 -1.275,0.006 -2.2502,-0.0242 -2.27339,-0.0712 -2.99812,0.75927 -2.99812,3.43551 l 0,1.87499 3.33984,-0.1019 3.33985,-0.1019 0.11828,-1.92904 c 0.065,-1.06097 0.28268,-2.11208 0.48362,-2.33579 0.51826,-0.57699 4.95655,-1.6734 5.33994,-1.31915 0.17538,0.16204 0.3702,1.48473 0.43293,2.9393 l 0.11406,2.64468 1.52679,0.094 c 3.20994,0.19764 3.24442,0.22442 3.24442,2.52007 0,2.37112 -0.16014,2.49977 -3.11166,2.49977 l -1.90413,0 0.12229,5.49847 c 0.11683,5.25253 0.16175,5.52795 1.00431,6.15759 0.62645,0.46815 1.31767,0.61908 2.3856,0.52091 l 1.50359,-0.13821 0,1.96518 c 0,2.5416 -0.49605,2.89872 -4.04679,2.91341 -2.19344,0.009 -2.95446,-0.14047 -3.98718,-0.78351 z m -168.59979,0.033 c -0.73748,-0.68142 -0.68001,-28.26578 0.0601,-28.83331 0.34683,-0.26596 1.84909,-0.3736 4.29409,-0.30769 l 3.76063,0.10138 0.62545,1.23437 c 0.344,0.67891 2.30262,5.16234 4.35248,9.96317 2.04986,4.80084 3.83599,8.7288 3.96918,8.7288 0.13318,0 2.22033,-4.48343 4.63809,-9.96317 l 4.39593,-9.96317 3.98712,0 3.98711,0 0,14.63616 0,14.63616 -2.86273,0 -2.86272,0 -0.19085,-9.875 -0.19085,-9.875 -0.69528,1.41072 c -0.38241,0.77589 -2.35768,5.21964 -4.38951,9.87499 l -3.69422,8.46429 -2.25783,0 -2.25783,0 -4.42186,-10.05134 -4.42186,-10.05134 -0.19085,10.05134 -0.19085,10.05134 -2.48476,0.10235 c -1.60415,0.0661 -2.65253,-0.0527 -2.95815,-0.33504 z m 38.93304,0 c -0.73729,-0.68123 -0.67542,-20.1577 0.0658,-20.72612 0.3243,-0.24868 1.50335,-0.37132 2.95815,-0.30769 l 2.41893,0.1058 0,10.58035 0,10.58036 -2.48476,0.10235 c -1.60416,0.0661 -2.65253,-0.0527 -2.95815,-0.33504 z m 30.24165,-0.0206 c -0.10523,-0.25338 -0.14569,-5.06122 -0.0899,-10.68408 l 0.10143,-10.22337 2.86272,0 c 2.67815,0 2.87059,0.0512 2.98469,0.79352 0.15316,0.99643 0.27745,0.99083 1.64723,-0.0741 1.31415,-1.02172 3.47841,-1.47735 4.87293,-1.02587 0.92989,0.30106 0.99884,0.48195 1.10455,2.89808 l 0.11274,2.57699 -2.11655,-0.24434 c -2.46731,-0.28484 -3.60282,0.21099 -4.68211,2.04447 -0.54918,0.93294 -0.7084,2.34144 -0.86676,7.66744 l -0.194,6.52455 -2.77281,0.10372 c -2.01331,0.0753 -2.82523,-0.0225 -2.96416,-0.35697 z M 275.47712,492.13756 C 275.10903,492.00032 275,489.31543 275,480.38841 c 0,-10.22615 0.0702,-11.59616 0.60376,-11.78535 0.33207,-0.11774 5.79415,-0.21407 12.13795,-0.21407 8.4621,0 11.65618,0.11272 11.99222,0.42321 0.65517,0.60537 0.65517,22.53035 0,23.13572 -0.33762,0.31195 -3.52355,0.41589 -12.11886,0.39537 -6.41346,-0.0153 -11.87553,-0.10789 -12.13795,-0.20573 z m 27.10045,0 c -0.36809,-0.13724 -0.47712,-2.82213 -0.47712,-11.74915 0,-10.22615 0.0702,-11.59616 0.60376,-11.78535 0.33207,-0.11774 5.81623,-0.21407 12.18702,-0.21407 10.02131,0 11.66414,0.0747 12.18307,0.55421 0.51936,0.47988 0.59981,2.01378 0.59981,11.43686 0,9.42308 -0.0804,10.95698 -0.59981,11.43686 -0.52059,0.48101 -2.14647,0.55053 -12.30971,0.52637 -6.44045,-0.0153 -11.92461,-0.10789 -12.18702,-0.20573 z m 79.26807,-9.26162 c -1.70856,-1.57867 -1.33271,-3.77273 0.82272,-4.80261 2.40502,-1.14913 5.31378,0.34751 5.31378,2.7341 0,1.53175 -1.83407,3.09942 -3.62612,3.09942 -1.03253,0 -1.68435,-0.26768 -2.51038,-1.03091 z"
         id="path4163"
         inkscape:connector-curvature="0" />
      <path
         style="fill:#9f9d9d"
         d="m 275,505.77292 0,-11.29549 12.30971,0.0931 12.30971,0.0931 0,11.10938 0,11.10937 -12.30971,0.0931 -12.30971,0.093 0,-11.29548 z m 27.65737,10.84626 c -0.10268,-0.24724 -0.14117,-5.28841 -0.0855,-11.20258 l 0.10116,-10.75306 12.12423,-0.0931 12.12423,-0.0931 -0.10079,11.20251 -0.10079,11.2025 -11.9379,0.0932 c -9.39509,0.0734 -11.97767,-0.002 -12.1246,-0.35632 z m 95.38809,-9.09424 c -2.29445,-0.65284 -4.79736,-2.55325 -6.02339,-4.57345 -1.10132,-1.8147 -1.17616,-2.16706 -1.16103,-5.46652 0.0136,-2.95371 0.16025,-3.79962 0.90283,-5.20588 1.20487,-2.28175 4.1928,-4.70212 6.63044,-5.37099 3.22233,-0.88418 8.71517,-0.50766 9.52563,0.65296 0.41382,0.59262 0.3522,3.67609 -0.0784,3.92198 -0.20377,0.11636 -0.93377,-0.0645 -1.62221,-0.40197 -1.98773,-0.97428 -5.19439,-0.84029 -7.05043,0.2946 -3.83469,2.34475 -4.19935,8.32894 -0.68147,11.18287 1.83201,1.48623 4.1588,1.75615 6.94975,0.8062 1.18048,-0.4018 2.28774,-0.64978 2.46058,-0.55108 0.17284,0.0987 0.31426,0.95954 0.31426,1.91298 0,1.59708 -0.0976,1.78093 -1.24051,2.3359 -1.44835,0.7033 -7.05809,0.9939 -8.92608,0.4624 z m 34.97439,0.0345 c -3.11183,-0.87461 -6.05368,-3.54701 -6.91281,-6.27965 -1.2048,-3.83208 -0.34084,-8.87074 1.96401,-11.45436 3.60823,-4.04461 12.58518,-4.62036 16.82728,-1.07924 2.39252,1.99717 3.12466,3.6268 3.31545,7.3797 0.21061,4.14269 -0.50988,6.30379 -2.88321,8.64818 -2.21901,2.19196 -4.82397,3.12617 -8.60103,3.08458 -1.51414,-0.0167 -3.1835,-0.15131 -3.70969,-0.29921 z m 6.71388,-4.1165 c 0.7107,-0.31161 1.66252,-1.12023 2.11515,-1.79693 1.02639,-1.53447 1.40197,-5.39566 0.71723,-7.37344 -1.33973,-3.86962 -6.1164,-5.18519 -9.3378,-2.57179 -3.49766,2.83751 -2.82774,9.99189 1.08953,11.63562 1.93605,0.81239 3.72574,0.84759 5.41589,0.10654 z m 12.94595,3.98826 -1.52678,-0.44384 -0.11493,-2.24013 c -0.12787,-2.49252 -0.32605,-2.39968 2.7868,-1.30541 3.22014,1.13199 6.67969,0.44286 6.67969,-1.33057 0,-1.08472 -1.23972,-2.06247 -4.19866,-3.31142 -2.85384,-1.20459 -4.06418,-2.16573 -4.81327,-3.82225 -1.09934,-2.43108 -0.41552,-4.87181 1.88868,-6.74111 1.76458,-1.43154 3.97959,-1.98276 7.13772,-1.77627 3.69173,0.24138 4.18419,0.58571 4.18419,2.92555 0,1.06003 -0.12882,1.92493 -0.28627,1.92201 -0.15745,-0.003 -0.97333,-0.23401 -1.81306,-0.51353 -3.9495,-1.31469 -7.0936,-0.0438 -6.05838,2.44882 0.13179,0.31733 1.7206,1.26625 3.5307,2.10874 1.81009,0.84247 3.6661,1.90514 4.12447,2.36149 2.71933,2.70731 1.89599,7.06866 -1.70224,9.01706 -1.4681,0.79495 -2.27633,0.96334 -5.02082,1.04609 -1.87932,0.0567 -3.92065,-0.0902 -4.79784,-0.34523 z m 22.60315,-0.0491 c -5.00088,-1.64848 -7.56998,-5.85773 -7.00825,-11.4824 0.58239,-5.8315 5.11723,-9.52412 11.6964,-9.52412 6.91189,0 11.06919,3.88841 11.06919,10.35323 0,3.58917 -0.80071,5.79247 -2.88264,7.93203 -2.22311,2.28465 -4.78888,3.23452 -8.67799,3.21265 -1.51414,-0.009 -3.40266,-0.22964 -4.19671,-0.49139 z m 7.19813,-4.04096 c 1.95041,-0.8185 2.92119,-2.54955 3.14444,-5.60701 0.37371,-5.11813 -3.27901,-8.49094 -7.72676,-7.13464 -5.2026,1.58647 -5.81733,10.6453 -0.86341,12.72342 2.01124,0.84369 3.4671,0.84857 5.44573,0.0182 z m 29.18414,3.89832 c -2.4435,-1.21083 -2.85901,-2.55985 -3.00373,-9.75212 -0.0871,-4.33019 -0.26898,-6.42888 -0.57254,-6.60732 -0.80865,-0.47535 -6.61176,-0.31418 -7.07034,0.19636 -0.27195,0.30278 -0.45737,3.26745 -0.52385,8.37611 l -0.1029,7.90746 -2.38561,0.105 -2.3856,0.105 0,-7.79894 c 0,-4.70157 -0.15693,-8.06987 -0.39512,-8.48112 -0.28999,-0.50064 -0.80315,-0.68217 -1.92843,-0.68217 l -1.53331,0 0.11537,-1.85156 0.11538,-1.85156 1.62042,-0.10837 c 1.83453,-0.12269 1.87709,-0.20056 2.10639,-3.85386 0.11399,-1.81608 0.34021,-2.42997 1.29964,-3.52678 1.60051,-1.82969 3.17868,-2.59713 5.7908,-2.81598 3.19357,-0.26757 3.95003,0.19074 3.80256,2.30381 -0.11334,1.62419 -0.13861,1.65371 -1.45129,1.69595 -2.44572,0.0787 -2.63762,0.12887 -3.40539,0.89032 -0.84398,0.83704 -1.39418,3.33942 -0.99181,4.51081 0.24379,0.70973 0.46897,0.7469 3.95008,0.65202 l 3.69154,-0.1006 0.11353,-1.9986 c 0.0624,-1.09923 0.32008,-2.148 0.57254,-2.3306 0.79736,-0.57671 4.22093,-1.50561 4.52241,-1.22704 0.15886,0.14679 0.34017,1.45699 0.40291,2.91156 l 0.11406,2.64468 2.57645,0.10428 2.57645,0.10428 0,1.92362 0,1.92362 -2.21384,0 c -1.21761,0 -2.41995,0.19045 -2.67187,0.42321 -0.56829,0.52509 -0.63846,10.02543 -0.084,11.3729 0.53004,1.28812 1.96502,1.8184 3.63742,1.34415 l 1.3323,-0.37781 0,1.91545 c 0,1.7316 -0.094,1.94846 -0.97909,2.2594 -1.63703,0.57508 -5.19468,0.41141 -6.64152,-0.30555 z m -168.45202,0.0771 c -0.14912,-0.13778 -0.27112,-6.65162 -0.27112,-14.47521 l 0,-14.2247 3.61732,0 c 3.3382,0 3.65863,0.0612 4.15268,0.79353 0.29445,0.43644 2.37911,5.13193 4.63258,10.43443 2.93489,6.90591 4.21421,9.5328 4.50962,9.25985 0.22682,-0.20958 2.39727,-4.8654 4.82321,-10.34626 l 4.4108,-9.96521 3.62611,0 3.62612,0 0,14.28348 0,14.28348 -2.48103,0 -2.48102,0 -0.10124,-10.34345 c -0.0728,-7.43792 -0.22126,-10.30648 -0.52851,-10.21185 -0.23501,0.0724 -2.33649,4.60021 -4.66997,10.06183 -2.33348,5.46163 -4.43406,10.10682 -4.66796,10.32264 -0.23389,0.21583 -1.17859,0.34255 -2.09933,0.28162 l -1.67406,-0.11079 -4.39388,-10.05134 c -2.41664,-5.52823 -4.56368,-10.28939 -4.77121,-10.58035 -0.25501,-0.35753 -0.43919,2.90084 -0.56817,10.05133 l -0.19085,10.58036 -2.11449,0.10356 c -1.16296,0.057 -2.23648,-0.009 -2.3856,-0.14695 z m 38.75155,-10.07915 0.10122,-10.33281 2.29017,0 2.29018,0 0,10.22767 0,10.22768 -2.39139,0.10514 -2.3914,0.10514 0.10122,-10.33282 z m 30.2441,9.87022 c -0.10566,-0.25441 -0.14638,-4.90416 -0.0905,-10.3328 l 0.10162,-9.87023 2.48103,0 2.48103,0 0.11961,1.1462 c 0.1444,1.38384 0.43189,1.42789 1.55182,0.23778 1.18245,-1.25655 3.3136,-2.0206 4.87911,-1.74924 l 1.27423,0.22088 0,2.26968 0,2.26968 -1.70752,-0.21624 c -2.23824,-0.28347 -3.78957,0.33615 -4.87337,1.94646 -0.79165,1.17625 -0.8778,1.81479 -1.05303,7.8056 l -0.19085,6.52455 -2.39054,0.10512 c -1.70506,0.075 -2.44564,-0.0275 -2.58265,-0.35744 z M 275,480.38006 l 0,-11.29548 12.30971,0.0931 12.30971,0.0931 0,11.10937 0,11.10938 -12.30971,0.0931 -12.30971,0.0931 0,-11.29549 z m 27.5722,0.0882 0.10079,-11.19754 12.11886,-0.0931 12.11886,-0.0931 0,11.29067 0,11.29067 -12.21964,0 -12.21965,0 0.10078,-11.19755 z m 79.6942,2.38955 c -1.67103,-1.54399 -1.17554,-3.84902 0.99099,-4.61011 1.95158,-0.68558 4.34305,0.81493 4.34305,2.725 0,2.145 -3.65483,3.43666 -5.33404,1.88511 z"
         id="path4161"
         inkscape:connector-curvature="0" />
      <path
         style="fill:#edbd16"
         d="m 275,505.77292 0,-11.29549 12.30971,0.0931 12.30971,0.0931 0,11.10938 0,11.10937 -12.30971,0.0931 -12.30971,0.093 0,-11.29548 z m 27.65737,10.84626 c -0.10268,-0.24724 -0.14117,-5.28841 -0.0855,-11.20258 l 0.10116,-10.75306 12.12423,-0.0931 12.12423,-0.0931 -0.10079,11.20251 -0.10079,11.2025 -11.9379,0.0932 c -9.39509,0.0734 -11.97767,-0.002 -12.1246,-0.35632 z m 94.59425,-9.80562 c -4.15073,-1.51816 -6.52802,-5.5219 -6.09731,-10.26884 0.38532,-4.24671 2.26481,-6.99799 5.91064,-8.65222 1.90153,-0.86279 2.61225,-0.98687 5.6125,-0.9799 4.41823,0.0103 5.1529,0.36288 5.1529,2.47317 0,1.76539 -0.0343,1.78104 -2.29017,1.04563 -2.06582,-0.67345 -3.47909,-0.66893 -5.25538,0.0168 -1.88614,0.72817 -3.0945,1.80265 -3.94731,3.50996 -1.34402,2.69072 -0.63186,7.02087 1.4334,8.71534 2.08832,1.7134 5.37888,2.11538 8.07189,0.98606 1.86004,-0.78001 2.13041,-0.5743 1.91905,1.46011 -0.16415,1.57994 -1.5413,2.16141 -5.46607,2.30793 -2.39861,0.0895 -3.48053,-0.0422 -5.04414,-0.61407 z m 35.389,0.18083 c -2.39717,-0.68775 -4.35123,-2.30551 -5.57395,-4.61467 -0.89263,-1.68576 -1.04134,-2.40565 -1.03665,-5.01847 0.007,-3.69471 0.981,-6.11419 3.21246,-7.97692 2.3492,-1.96101 3.86755,-2.42622 7.9785,-2.44452 3.07885,-0.0137 3.88534,0.10838 5.34375,0.80895 2.34697,1.1274 2.9734,1.6928 4.14449,3.74068 0.90488,1.58235 1.00841,2.14357 1.00841,5.46651 0,3.34748 -0.0995,3.87753 -1.03652,5.51901 -1.93466,3.3893 -5.30671,5.08663 -10.00653,5.03679 -1.27398,-0.0135 -3.08926,-0.24632 -4.03396,-0.51736 z m 7.93603,-3.56476 c 1.75953,-1.18417 2.75147,-3.45444 2.75147,-6.29734 0,-3.3604 -1.04697,-5.33037 -3.42072,-6.43638 -0.9367,-0.43644 -2.23147,-0.79353 -2.87727,-0.79353 -1.90169,0 -4.4711,1.41003 -5.40328,2.96518 -2.33889,3.90195 -0.96674,9.4756 2.71248,11.01811 1.59454,0.66851 4.92859,0.42474 6.23732,-0.45604 z m 12.48473,3.62903 c -1.50388,-0.4171 -1.52851,-0.45108 -1.64216,-2.26531 -0.0634,-1.01302 -0.0469,-1.84186 0.0368,-1.84186 0.0837,0 0.73678,0.27242 1.45131,0.60538 0.71454,0.33296 2.44021,0.66732 3.83484,0.74303 2.18689,0.11871 2.6463,0.0354 3.33985,-0.60538 0.97729,-0.903 1.04549,-2.55293 0.13619,-3.29463 -0.36738,-0.29966 -2.06689,-1.19049 -3.77668,-1.97961 -1.70979,-0.78912 -3.46166,-1.84935 -3.89303,-2.35607 -2.13489,-2.50774 -1.03125,-6.60356 2.23053,-8.2779 1.45979,-0.74933 2.21036,-0.88158 4.99983,-0.88092 3.89842,10e-4 4.54259,0.33785 4.54259,2.37593 0,1.35935 -0.0367,1.40031 -1.04967,1.1704 -0.57732,-0.13104 -1.99436,-0.32375 -3.149,-0.42824 -1.76841,-0.16005 -2.26478,-0.0693 -3.14899,0.5754 -1.27539,0.93 -1.3942,2.43287 -0.26688,3.37553 0.43054,0.36 2.19111,1.29715 3.91239,2.08256 2.80179,1.27842 3.22403,1.60391 4.03108,3.10738 0.74205,1.38237 0.85353,1.97484 0.63036,3.34995 -0.32772,2.0192 -2.26724,3.93309 -4.65587,4.59434 -1.92523,0.53296 -5.54793,0.50902 -7.56347,-0.05 z m 22.31755,-0.0435 c -2.42721,-0.72018 -4.67312,-2.61877 -5.72761,-4.84186 -1.24959,-2.63438 -1.25349,-7.08686 -0.009,-9.71105 0.94634,-1.99471 3.18116,-4.10516 5.15336,-4.86655 3.44049,-1.32824 8.26178,-1.05004 11.30065,0.65208 2.91395,1.63216 4.26949,3.98863 4.48415,7.79525 0.19176,3.40063 -0.27155,5.19788 -1.93158,7.49297 -1.82449,2.52245 -4.50653,3.75148 -8.48372,3.88762 -1.92841,0.066 -3.69599,-0.0848 -4.78673,-0.40846 z m 7.94772,-3.58553 c 0.56861,-0.38267 1.43242,-1.40066 1.91958,-2.26218 0.76572,-1.35416 0.8657,-1.95701 0.73791,-4.44916 -0.18718,-3.6504 -1.24584,-5.36418 -3.89002,-6.29723 -3.25374,-1.14815 -6.5444,0.0333 -8.0773,2.90003 -0.92639,1.73246 -0.96794,6.13859 -0.0725,7.69067 0.74737,1.29545 2.08298,2.47917 3.355,2.97343 1.44851,0.56284 4.82846,0.2513 6.02735,-0.55556 z m 28.71981,3.50421 c -2.51913,-1.20326 -2.8533,-2.27149 -3.01097,-9.62521 -0.0936,-4.36465 -0.2839,-6.61033 -0.57487,-6.78366 -0.74199,-0.44201 -7.29679,-0.31321 -7.8017,0.15331 -0.32946,0.30441 -0.45803,2.68035 -0.45803,8.46428 l 0,8.04107 -2.09933,0 -2.09933,0 0,-8.04107 c 0,-5.78393 -0.12857,-8.15987 -0.45804,-8.46428 -0.25192,-0.23277 -1.12061,-0.42322 -1.93043,-0.42322 l -1.47239,0 0.11737,-1.49888 c 0.1153,-1.4724 0.14426,-1.50091 1.6392,-1.61333 0.83701,-0.0629 1.65026,-0.301 1.80722,-0.52902 0.15696,-0.22801 0.28801,-1.38152 0.29122,-2.56334 0.011,-4.0478 2.46356,-6.60372 6.79109,-7.07728 2.62731,-0.28751 3.59848,0.25087 3.44669,1.91072 -0.11593,1.26769 -0.13296,1.27942 -1.90045,1.30824 -1.17802,0.0192 -2.05378,0.25512 -2.57974,0.69492 -1.0176,0.8509 -1.64843,2.80409 -1.48787,4.60681 l 0.12564,1.41072 4.19866,0 4.19866,0 0.19085,-2.25532 0.19084,-2.25531 1.71764,-0.47259 c 2.66811,-0.73411 2.6282,-0.76675 2.75124,2.24996 l 0.11148,2.73326 2.67188,0.0398 2.67187,0.0398 0.11295,1.7473 0.11295,1.74731 -2.30866,-0.1543 c -3.46177,-0.23136 -3.45184,-0.24911 -3.45184,6.16886 0,5.47643 0.20695,6.50399 1.49371,7.41683 0.73486,0.52131 2.95034,0.58849 3.2775,0.0994 0.58932,-0.88106 0.98549,-0.21564 0.87876,1.47601 l -0.11537,1.8287 -2.86272,0.12575 c -2.20407,0.0968 -3.16711,-0.0196 -4.18568,-0.50615 z m -168.7228,-13.85216 0,-14.1388 3.48634,0.1014 3.48634,0.10141 4.39998,10.31584 c 3.1931,7.4863 4.56632,10.31576 5.00641,10.31552 0.43681,-2.3e-4 1.82565,-2.78679 4.96571,-9.96316 2.39761,-5.47957 4.52274,-10.16123 4.72252,-10.40369 0.23967,-0.29089 1.45095,-0.44085 3.56091,-0.44085 l 3.19768,0 0,14.12474 0,14.12474 -2.19475,-0.10577 -2.19476,-0.10577 -0.0966,-10.40401 c -0.0531,-5.72221 -0.18827,-10.63058 -0.3003,-10.90748 -0.41902,-1.03579 -1.27284,0.6127 -5.69512,10.99565 l -4.4688,10.49218 -1.44795,0 c -0.79638,0 -1.61401,-0.19838 -1.81695,-0.44085 -0.20295,-0.24246 -2.31189,-4.96395 -4.68653,-10.49218 -4.29348,-9.99535 -4.75533,-10.93304 -5.38497,-10.93304 -0.1812,0 -0.37487,4.88019 -0.43039,10.84487 l -0.10094,10.84486 -2.0039,0.1066 -2.00391,0.1066 0,-14.13881 z m 39.02252,4.13878 0.10136,-9.96317 1.90848,0 1.90849,0 0.10136,9.96317 0.10138,9.96317 -2.11123,0 -2.11122,0 0.10138,-9.96317 z m 30.24471,9.53563 c -0.10614,-0.25557 -0.14716,-4.74735 -0.0912,-9.98173 l 0.10183,-9.51707 2.09933,0 c 2.05327,0 2.10179,0.0232 2.21117,1.05804 0.2222,2.10223 0.42222,2.16283 1.90998,0.57867 1.44584,-1.53951 3.45065,-2.29916 5.04873,-1.91302 0.62956,0.15212 0.75423,0.4863 0.75423,2.02168 l 0,1.83945 -2.00391,-0.15185 c -1.64127,-0.12437 -2.19524,-0.0123 -3.0612,0.61931 -2.11149,1.54007 -2.36139,2.44961 -2.56882,9.34951 l -0.19085,6.34821 -2.00817,0.10674 c -1.39609,0.0742 -2.067,-0.0349 -2.20116,-0.35794 z M 275,480.38006 l 0,-11.28571 11.9471,0 c 8.78326,0 12.06839,0.11207 12.40513,0.42321 0.33535,0.30986 0.45804,3.18337 0.45804,10.72785 0,5.66755 -0.10426,10.55568 -0.23169,10.8625 -0.20456,0.49256 -1.65665,0.55787 -12.40513,0.55787 l -12.17345,0 0,-11.28572 z m 27.71589,10.73282 c -0.12856,-0.30955 -0.23375,-5.21222 -0.23375,-10.89482 0,-8.31934 0.10189,-10.41012 0.52307,-10.73309 0.37159,-0.28495 3.88099,-0.37405 12.11886,-0.30769 l 11.5958,0.0934 0,11.10937 0,11.10938 -11.88512,0.0931 c -10.589,0.083 -11.9106,0.0317 -12.11886,-0.4697 z m 80.18761,-8.30326 c -1.76418,-0.94828 -1.4657,-3.50751 0.48226,-4.13494 1.43796,-0.46317 3.27466,0.30177 3.59995,1.49927 0.57324,2.11034 -1.98576,3.76255 -4.08221,2.63567 z"
         id="path4159"
         inkscape:connector-curvature="0" />
      <path
         style="fill:#04aded"
         d="m 275,505.77292 0,-11.29549 12.30971,0.0931 12.30971,0.0931 0,11.10938 0,11.10937 -12.30971,0.0931 -12.30971,0.093 0,-11.29548 z m 122.25162,1.04064 c -4.15073,-1.51816 -6.52802,-5.5219 -6.09731,-10.26884 0.38532,-4.24671 2.26481,-6.99799 5.91064,-8.65222 1.90153,-0.86279 2.61225,-0.98687 5.6125,-0.9799 4.41823,0.0103 5.1529,0.36288 5.1529,2.47317 0,1.76539 -0.0343,1.78104 -2.29017,1.04563 -2.06582,-0.67345 -3.47909,-0.66893 -5.25538,0.0168 -1.88614,0.72817 -3.0945,1.80265 -3.94731,3.50996 -1.34402,2.69072 -0.63186,7.02087 1.4334,8.71534 2.08832,1.7134 5.37888,2.11538 8.07189,0.98606 1.86004,-0.78001 2.13041,-0.5743 1.91905,1.46011 -0.16415,1.57994 -1.5413,2.16141 -5.46607,2.30793 -2.39861,0.0895 -3.48053,-0.0422 -5.04414,-0.61407 z m 35.389,0.18083 c -2.39717,-0.68775 -4.35123,-2.30551 -5.57395,-4.61467 -0.89263,-1.68576 -1.04134,-2.40565 -1.03665,-5.01847 0.007,-3.69471 0.981,-6.11419 3.21246,-7.97692 2.3492,-1.96101 3.86755,-2.42622 7.9785,-2.44452 3.07885,-0.0137 3.88534,0.10838 5.34375,0.80895 2.34697,1.1274 2.9734,1.6928 4.14449,3.74068 0.90488,1.58235 1.00841,2.14357 1.00841,5.46651 0,3.34748 -0.0995,3.87753 -1.03652,5.51901 -1.93466,3.3893 -5.30671,5.08663 -10.00653,5.03679 -1.27398,-0.0135 -3.08926,-0.24632 -4.03396,-0.51736 z m 7.93603,-3.56476 c 1.75953,-1.18417 2.75147,-3.45444 2.75147,-6.29734 0,-3.3604 -1.04697,-5.33037 -3.42072,-6.43638 -0.9367,-0.43644 -2.23147,-0.79353 -2.87727,-0.79353 -1.90169,0 -4.4711,1.41003 -5.40328,2.96518 -2.33889,3.90195 -0.96674,9.4756 2.71248,11.01811 1.59454,0.66851 4.92859,0.42474 6.23732,-0.45604 z m 12.48473,3.62903 c -1.50388,-0.4171 -1.52851,-0.45108 -1.64216,-2.26531 -0.0634,-1.01302 -0.0469,-1.84186 0.0368,-1.84186 0.0837,0 0.73678,0.27242 1.45131,0.60538 0.71454,0.33296 2.44021,0.66732 3.83484,0.74303 2.18689,0.11871 2.6463,0.0354 3.33985,-0.60538 0.97729,-0.903 1.04549,-2.55293 0.13619,-3.29463 -0.36738,-0.29966 -2.06689,-1.19049 -3.77668,-1.97961 -1.70979,-0.78912 -3.46166,-1.84935 -3.89303,-2.35607 -2.13489,-2.50774 -1.03125,-6.60356 2.23053,-8.2779 1.45979,-0.74933 2.21036,-0.88158 4.99983,-0.88092 3.89842,10e-4 4.54259,0.33785 4.54259,2.37593 0,1.35935 -0.0367,1.40031 -1.04967,1.1704 -0.57732,-0.13104 -1.99436,-0.32375 -3.149,-0.42824 -1.76841,-0.16005 -2.26478,-0.0693 -3.14899,0.5754 -1.27539,0.93 -1.3942,2.43287 -0.26688,3.37553 0.43054,0.36 2.19111,1.29715 3.91239,2.08256 2.80179,1.27842 3.22403,1.60391 4.03108,3.10738 0.74205,1.38237 0.85353,1.97484 0.63036,3.34995 -0.32772,2.0192 -2.26724,3.93309 -4.65587,4.59434 -1.92523,0.53296 -5.54793,0.50902 -7.56347,-0.05 z m 22.31755,-0.0435 c -2.42721,-0.72018 -4.67312,-2.61877 -5.72761,-4.84186 -1.24959,-2.63438 -1.25349,-7.08686 -0.009,-9.71105 0.94634,-1.99471 3.18116,-4.10516 5.15336,-4.86655 3.44049,-1.32824 8.26178,-1.05004 11.30065,0.65208 2.91395,1.63216 4.26949,3.98863 4.48415,7.79525 0.19176,3.40063 -0.27155,5.19788 -1.93158,7.49297 -1.82449,2.52245 -4.50653,3.75148 -8.48372,3.88762 -1.92841,0.066 -3.69599,-0.0848 -4.78673,-0.40846 z m 7.94772,-3.58553 c 0.56861,-0.38267 1.43242,-1.40066 1.91958,-2.26218 0.76572,-1.35416 0.8657,-1.95701 0.73791,-4.44916 -0.18718,-3.6504 -1.24584,-5.36418 -3.89002,-6.29723 -3.25374,-1.14815 -6.5444,0.0333 -8.0773,2.90003 -0.92639,1.73246 -0.96794,6.13859 -0.0725,7.69067 0.74737,1.29545 2.08298,2.47917 3.355,2.97343 1.44851,0.56284 4.82846,0.2513 6.02735,-0.55556 z m 28.71981,3.50421 c -2.51913,-1.20326 -2.8533,-2.27149 -3.01097,-9.62521 -0.0936,-4.36465 -0.2839,-6.61033 -0.57487,-6.78366 -0.74199,-0.44201 -7.29679,-0.31321 -7.8017,0.15331 -0.32946,0.30441 -0.45803,2.68035 -0.45803,8.46428 l 0,8.04107 -2.09933,0 -2.09933,0 0,-8.04107 c 0,-5.78393 -0.12857,-8.15987 -0.45804,-8.46428 -0.25192,-0.23277 -1.12061,-0.42322 -1.93043,-0.42322 l -1.47239,0 0.11737,-1.49888 c 0.1153,-1.4724 0.14426,-1.50091 1.6392,-1.61333 0.83701,-0.0629 1.65026,-0.301 1.80722,-0.52902 0.15696,-0.22801 0.28801,-1.38152 0.29122,-2.56334 0.011,-4.0478 2.46356,-6.60372 6.79109,-7.07728 2.62731,-0.28751 3.59848,0.25087 3.44669,1.91072 -0.11593,1.26769 -0.13296,1.27942 -1.90045,1.30824 -1.17802,0.0192 -2.05378,0.25512 -2.57974,0.69492 -1.0176,0.8509 -1.64843,2.80409 -1.48787,4.60681 l 0.12564,1.41072 4.19866,0 4.19866,0 0.19085,-2.25532 0.19084,-2.25531 1.71764,-0.47259 c 2.66811,-0.73411 2.6282,-0.76675 2.75124,2.24996 l 0.11148,2.73326 2.67188,0.0398 2.67187,0.0398 0.11295,1.7473 0.11295,1.74731 -2.30866,-0.1543 c -3.46177,-0.23136 -3.45184,-0.24911 -3.45184,6.16886 0,5.47643 0.20695,6.50399 1.49371,7.41683 0.73486,0.52131 2.95034,0.58849 3.2775,0.0994 0.58932,-0.88106 0.98549,-0.21564 0.87876,1.47601 l -0.11537,1.8287 -2.86272,0.12575 c -2.20407,0.0968 -3.16711,-0.0196 -4.18568,-0.50615 z m -168.7228,-13.85216 0,-14.1388 3.48634,0.1014 3.48634,0.10141 4.39998,10.31584 c 3.1931,7.4863 4.56632,10.31576 5.00641,10.31552 0.43681,-2.3e-4 1.82565,-2.78679 4.96571,-9.96316 2.39761,-5.47957 4.52274,-10.16123 4.72252,-10.40369 0.23967,-0.29089 1.45095,-0.44085 3.56091,-0.44085 l 3.19768,0 0,14.12474 0,14.12474 -2.19475,-0.10577 -2.19476,-0.10577 -0.0966,-10.40401 c -0.0531,-5.72221 -0.18827,-10.63058 -0.3003,-10.90748 -0.41902,-1.03579 -1.27284,0.6127 -5.69512,10.99565 l -4.4688,10.49218 -1.44795,0 c -0.79638,0 -1.61401,-0.19838 -1.81695,-0.44085 -0.20295,-0.24246 -2.31189,-4.96395 -4.68653,-10.49218 -4.29348,-9.99535 -4.75533,-10.93304 -5.38497,-10.93304 -0.1812,0 -0.37487,4.88019 -0.43039,10.84487 l -0.10094,10.84486 -2.0039,0.1066 -2.00391,0.1066 0,-14.13881 z m 39.02252,4.13878 0.10136,-9.96317 1.90848,0 1.90849,0 0.10136,9.96317 0.10138,9.96317 -2.11123,0 -2.11122,0 0.10138,-9.96317 z m 30.24471,9.53563 c -0.10614,-0.25557 -0.14716,-4.74735 -0.0912,-9.98173 l 0.10183,-9.51707 2.09933,0 c 2.05327,0 2.10179,0.0232 2.21117,1.05804 0.2222,2.10223 0.42222,2.16283 1.90998,0.57867 1.44584,-1.53951 3.45065,-2.29916 5.04873,-1.91302 0.62956,0.15212 0.75423,0.4863 0.75423,2.02168 l 0,1.83945 -2.00391,-0.15185 c -1.64127,-0.12437 -2.19524,-0.0123 -3.0612,0.61931 -2.11149,1.54007 -2.36139,2.44961 -2.56882,9.34951 l -0.19085,6.34821 -2.00817,0.10674 c -1.39609,0.0742 -2.067,-0.0349 -2.20116,-0.35794 z M 275,480.38006 l 0,-11.28571 11.9471,0 c 8.78326,0 12.06839,0.11207 12.40513,0.42321 0.33535,0.30986 0.45804,3.18337 0.45804,10.72785 0,5.66755 -0.10426,10.55568 -0.23169,10.8625 -0.20456,0.49256 -1.65665,0.55787 -12.40513,0.55787 l -12.17345,0 0,-11.28572 z m 27.71589,10.73282 c -0.12856,-0.30955 -0.23375,-5.21222 -0.23375,-10.89482 0,-8.31934 0.10189,-10.41012 0.52307,-10.73309 0.37159,-0.28495 3.88099,-0.37405 12.11886,-0.30769 l 11.5958,0.0934 0,11.10937 0,11.10938 -11.88512,0.0931 c -10.589,0.083 -11.9106,0.0317 -12.11886,-0.4697 z m 80.18761,-8.30326 c -1.76418,-0.94828 -1.4657,-3.50751 0.48226,-4.13494 1.43796,-0.46317 3.27466,0.30177 3.59995,1.49927 0.57324,2.11034 -1.98576,3.76255 -4.08221,2.63567 z"
         id="path4157"
         inkscape:connector-curvature="0" />
      <path
         style="fill:#7eca26"
         d="m 397.25162,506.81356 c -4.15073,-1.51816 -6.52802,-5.5219 -6.09731,-10.26884 0.38532,-4.24671 2.26481,-6.99799 5.91064,-8.65222 1.90153,-0.86279 2.61225,-0.98687 5.6125,-0.9799 4.41823,0.0103 5.1529,0.36288 5.1529,2.47317 0,1.76539 -0.0343,1.78104 -2.29017,1.04563 -2.06582,-0.67345 -3.47909,-0.66893 -5.25538,0.0168 -1.88614,0.72817 -3.0945,1.80265 -3.94731,3.50996 -1.34402,2.69072 -0.63186,7.02087 1.4334,8.71534 2.08832,1.7134 5.37888,2.11538 8.07189,0.98606 1.86004,-0.78001 2.13041,-0.5743 1.91905,1.46011 -0.16415,1.57994 -1.5413,2.16141 -5.46607,2.30793 -2.39861,0.0895 -3.48053,-0.0422 -5.04414,-0.61407 z m 35.389,0.18083 c -2.39717,-0.68775 -4.35123,-2.30551 -5.57395,-4.61467 -0.89263,-1.68576 -1.04134,-2.40565 -1.03665,-5.01847 0.007,-3.69471 0.981,-6.11419 3.21246,-7.97692 2.3492,-1.96101 3.86755,-2.42622 7.9785,-2.44452 3.07885,-0.0137 3.88534,0.10838 5.34375,0.80895 2.34697,1.1274 2.9734,1.6928 4.14449,3.74068 0.90488,1.58235 1.00841,2.14357 1.00841,5.46651 0,3.34748 -0.0995,3.87753 -1.03652,5.51901 -1.93466,3.3893 -5.30671,5.08663 -10.00653,5.03679 -1.27398,-0.0135 -3.08926,-0.24632 -4.03396,-0.51736 z m 7.93603,-3.56476 c 1.75953,-1.18417 2.75147,-3.45444 2.75147,-6.29734 0,-3.3604 -1.04697,-5.33037 -3.42072,-6.43638 -0.9367,-0.43644 -2.23147,-0.79353 -2.87727,-0.79353 -1.90169,0 -4.4711,1.41003 -5.40328,2.96518 -2.33889,3.90195 -0.96674,9.4756 2.71248,11.01811 1.59454,0.66851 4.92859,0.42474 6.23732,-0.45604 z m 12.48473,3.62903 c -1.50388,-0.4171 -1.52851,-0.45108 -1.64216,-2.26531 -0.0634,-1.01302 -0.0469,-1.84186 0.0368,-1.84186 0.0837,0 0.73678,0.27242 1.45131,0.60538 0.71454,0.33296 2.44021,0.66732 3.83484,0.74303 2.18689,0.11871 2.6463,0.0354 3.33985,-0.60538 0.97729,-0.903 1.04549,-2.55293 0.13619,-3.29463 -0.36738,-0.29966 -2.06689,-1.19049 -3.77668,-1.97961 -1.70979,-0.78912 -3.46166,-1.84935 -3.89303,-2.35607 -2.13489,-2.50774 -1.03125,-6.60356 2.23053,-8.2779 1.45979,-0.74933 2.21036,-0.88158 4.99983,-0.88092 3.89842,10e-4 4.54259,0.33785 4.54259,2.37593 0,1.35935 -0.0367,1.40031 -1.04967,1.1704 -0.57732,-0.13104 -1.99436,-0.32375 -3.149,-0.42824 -1.76841,-0.16005 -2.26478,-0.0693 -3.14899,0.5754 -1.27539,0.93 -1.3942,2.43287 -0.26688,3.37553 0.43054,0.36 2.19111,1.29715 3.91239,2.08256 2.80179,1.27842 3.22403,1.60391 4.03108,3.10738 0.74205,1.38237 0.85353,1.97484 0.63036,3.34995 -0.32772,2.0192 -2.26724,3.93309 -4.65587,4.59434 -1.92523,0.53296 -5.54793,0.50902 -7.56347,-0.05 z m 22.31755,-0.0435 c -2.42721,-0.72018 -4.67312,-2.61877 -5.72761,-4.84186 -1.24959,-2.63438 -1.25349,-7.08686 -0.009,-9.71105 0.94634,-1.99471 3.18116,-4.10516 5.15336,-4.86655 3.44049,-1.32824 8.26178,-1.05004 11.30065,0.65208 2.91395,1.63216 4.26949,3.98863 4.48415,7.79525 0.19176,3.40063 -0.27155,5.19788 -1.93158,7.49297 -1.82449,2.52245 -4.50653,3.75148 -8.48372,3.88762 -1.92841,0.066 -3.69599,-0.0848 -4.78673,-0.40846 z m 7.94772,-3.58553 c 0.56861,-0.38267 1.43242,-1.40066 1.91958,-2.26218 0.76572,-1.35416 0.8657,-1.95701 0.73791,-4.44916 -0.18718,-3.6504 -1.24584,-5.36418 -3.89002,-6.29723 -3.25374,-1.14815 -6.5444,0.0333 -8.0773,2.90003 -0.92639,1.73246 -0.96794,6.13859 -0.0725,7.69067 0.74737,1.29545 2.08298,2.47917 3.355,2.97343 1.44851,0.56284 4.82846,0.2513 6.02735,-0.55556 z m 28.71981,3.50421 c -2.51913,-1.20326 -2.8533,-2.27149 -3.01097,-9.62521 -0.0936,-4.36465 -0.2839,-6.61033 -0.57487,-6.78366 -0.74199,-0.44201 -7.29679,-0.31321 -7.8017,0.15331 -0.32946,0.30441 -0.45803,2.68035 -0.45803,8.46428 l 0,8.04107 -2.09933,0 -2.09933,0 0,-8.04107 c 0,-5.78393 -0.12857,-8.15987 -0.45804,-8.46428 -0.25192,-0.23277 -1.12061,-0.42322 -1.93043,-0.42322 l -1.47239,0 0.11737,-1.49888 c 0.1153,-1.4724 0.14426,-1.50091 1.6392,-1.61333 0.83701,-0.0629 1.65026,-0.301 1.80722,-0.52902 0.15696,-0.22801 0.28801,-1.38152 0.29122,-2.56334 0.011,-4.0478 2.46356,-6.60372 6.79109,-7.07728 2.62731,-0.28751 3.59848,0.25087 3.44669,1.91072 -0.11593,1.26769 -0.13296,1.27942 -1.90045,1.30824 -1.17802,0.0192 -2.05378,0.25512 -2.57974,0.69492 -1.0176,0.8509 -1.64843,2.80409 -1.48787,4.60681 l 0.12564,1.41072 4.19866,0 4.19866,0 0.19085,-2.25532 0.19084,-2.25531 1.71764,-0.47259 c 2.66811,-0.73411 2.6282,-0.76675 2.75124,2.24996 l 0.11148,2.73326 2.67188,0.0398 2.67187,0.0398 0.11295,1.7473 0.11295,1.74731 -2.30866,-0.1543 c -3.46177,-0.23136 -3.45184,-0.24911 -3.45184,6.16886 0,5.47643 0.20695,6.50399 1.49371,7.41683 0.73486,0.52131 2.95034,0.58849 3.2775,0.0994 0.58932,-0.88106 0.98549,-0.21564 0.87876,1.47601 l -0.11537,1.8287 -2.86272,0.12575 c -2.20407,0.0968 -3.16711,-0.0196 -4.18568,-0.50615 z m -168.7228,-13.85216 0,-14.1388 3.48634,0.1014 3.48634,0.10141 4.39998,10.31584 c 3.1931,7.4863 4.56632,10.31576 5.00641,10.31552 0.43681,-2.3e-4 1.82565,-2.78679 4.96571,-9.96316 2.39761,-5.47957 4.52274,-10.16123 4.72252,-10.40369 0.23967,-0.29089 1.45095,-0.44085 3.56091,-0.44085 l 3.19768,0 0,14.12474 0,14.12474 -2.19475,-0.10577 -2.19476,-0.10577 -0.0966,-10.40401 c -0.0531,-5.72221 -0.18827,-10.63058 -0.3003,-10.90748 -0.41902,-1.03579 -1.27284,0.6127 -5.69512,10.99565 l -4.4688,10.49218 -1.44795,0 c -0.79638,0 -1.61401,-0.19838 -1.81695,-0.44085 -0.20295,-0.24246 -2.31189,-4.96395 -4.68653,-10.49218 -4.29348,-9.99535 -4.75533,-10.93304 -5.38497,-10.93304 -0.1812,0 -0.37487,4.88019 -0.43039,10.84487 l -0.10094,10.84486 -2.0039,0.1066 -2.00391,0.1066 0,-14.13881 z m 39.02252,4.13878 0.10136,-9.96317 1.90848,0 1.90849,0 0.10136,9.96317 0.10138,9.96317 -2.11123,0 -2.11122,0 0.10138,-9.96317 z m 30.24471,9.53563 c -0.10614,-0.25557 -0.14716,-4.74735 -0.0912,-9.98173 l 0.10183,-9.51707 2.09933,0 c 2.05327,0 2.10179,0.0232 2.21117,1.05804 0.2222,2.10223 0.42222,2.16283 1.90998,0.57867 1.44584,-1.53951 3.45065,-2.29916 5.04873,-1.91302 0.62956,0.15212 0.75423,0.4863 0.75423,2.02168 l 0,1.83945 -2.00391,-0.15185 c -1.64127,-0.12437 -2.19524,-0.0123 -3.0612,0.61931 -2.11149,1.54007 -2.36139,2.44961 -2.56882,9.34951 l -0.19085,6.34821 -2.00817,0.10674 c -1.39609,0.0742 -2.067,-0.0349 -2.20116,-0.35794 z M 275,480.38006 l 0,-11.28571 11.9471,0 c 8.78326,0 12.06839,0.11207 12.40513,0.42321 0.33535,0.30986 0.45804,3.18337 0.45804,10.72785 0,5.66755 -0.10426,10.55568 -0.23169,10.8625 -0.20456,0.49256 -1.65665,0.55787 -12.40513,0.55787 l -12.17345,0 0,-11.28572 z m 27.71589,10.73282 c -0.12856,-0.30955 -0.23375,-5.21222 -0.23375,-10.89482 0,-8.31934 0.10189,-10.41012 0.52307,-10.73309 0.37159,-0.28495 3.88099,-0.37405 12.11886,-0.30769 l 11.5958,0.0934 0,11.10937 0,11.10938 -11.88512,0.0931 c -10.589,0.083 -11.9106,0.0317 -12.11886,-0.4697 z m 80.18761,-8.30326 c -1.76418,-0.94828 -1.4657,-3.50751 0.48226,-4.13494 1.43796,-0.46317 3.27466,0.30177 3.59995,1.49927 0.57324,2.11034 -1.98576,3.76255 -4.08221,2.63567 z"
         id="path4155"
         inkscape:connector-curvature="0" />
      <path
         style="fill:#ea5320"
         d="m 397.25162,506.81356 c -4.15073,-1.51816 -6.52802,-5.5219 -6.09731,-10.26884 0.38532,-4.24671 2.26481,-6.99799 5.91064,-8.65222 1.90153,-0.86279 2.61225,-0.98687 5.6125,-0.9799 4.41823,0.0103 5.1529,0.36288 5.1529,2.47317 0,1.76539 -0.0343,1.78104 -2.29017,1.04563 -2.06582,-0.67345 -3.47909,-0.66893 -5.25538,0.0168 -1.88614,0.72817 -3.0945,1.80265 -3.94731,3.50996 -1.34402,2.69072 -0.63186,7.02087 1.4334,8.71534 2.08832,1.7134 5.37888,2.11538 8.07189,0.98606 1.86004,-0.78001 2.13041,-0.5743 1.91905,1.46011 -0.16415,1.57994 -1.5413,2.16141 -5.46607,2.30793 -2.39861,0.0895 -3.48053,-0.0422 -5.04414,-0.61407 z m 35.389,0.18083 c -2.39717,-0.68775 -4.35123,-2.30551 -5.57395,-4.61467 -0.89263,-1.68576 -1.04134,-2.40565 -1.03665,-5.01847 0.007,-3.69471 0.981,-6.11419 3.21246,-7.97692 2.3492,-1.96101 3.86755,-2.42622 7.9785,-2.44452 3.07885,-0.0137 3.88534,0.10838 5.34375,0.80895 2.34697,1.1274 2.9734,1.6928 4.14449,3.74068 0.90488,1.58235 1.00841,2.14357 1.00841,5.46651 0,3.34748 -0.0995,3.87753 -1.03652,5.51901 -1.93466,3.3893 -5.30671,5.08663 -10.00653,5.03679 -1.27398,-0.0135 -3.08926,-0.24632 -4.03396,-0.51736 z m 7.93603,-3.56476 c 1.75953,-1.18417 2.75147,-3.45444 2.75147,-6.29734 0,-3.3604 -1.04697,-5.33037 -3.42072,-6.43638 -0.9367,-0.43644 -2.23147,-0.79353 -2.87727,-0.79353 -1.90169,0 -4.4711,1.41003 -5.40328,2.96518 -2.33889,3.90195 -0.96674,9.4756 2.71248,11.01811 1.59454,0.66851 4.92859,0.42474 6.23732,-0.45604 z m 12.48473,3.62903 c -1.50388,-0.4171 -1.52851,-0.45108 -1.64216,-2.26531 -0.0634,-1.01302 -0.0469,-1.84186 0.0368,-1.84186 0.0837,0 0.73678,0.27242 1.45131,0.60538 0.71454,0.33296 2.44021,0.66732 3.83484,0.74303 2.18689,0.11871 2.6463,0.0354 3.33985,-0.60538 0.97729,-0.903 1.04549,-2.55293 0.13619,-3.29463 -0.36738,-0.29966 -2.06689,-1.19049 -3.77668,-1.97961 -1.70979,-0.78912 -3.46166,-1.84935 -3.89303,-2.35607 -2.13489,-2.50774 -1.03125,-6.60356 2.23053,-8.2779 1.45979,-0.74933 2.21036,-0.88158 4.99983,-0.88092 3.89842,10e-4 4.54259,0.33785 4.54259,2.37593 0,1.35935 -0.0367,1.40031 -1.04967,1.1704 -0.57732,-0.13104 -1.99436,-0.32375 -3.149,-0.42824 -1.76841,-0.16005 -2.26478,-0.0693 -3.14899,0.5754 -1.27539,0.93 -1.3942,2.43287 -0.26688,3.37553 0.43054,0.36 2.19111,1.29715 3.91239,2.08256 2.80179,1.27842 3.22403,1.60391 4.03108,3.10738 0.74205,1.38237 0.85353,1.97484 0.63036,3.34995 -0.32772,2.0192 -2.26724,3.93309 -4.65587,4.59434 -1.92523,0.53296 -5.54793,0.50902 -7.56347,-0.05 z m 22.31755,-0.0435 c -2.42721,-0.72018 -4.67312,-2.61877 -5.72761,-4.84186 -1.24959,-2.63438 -1.25349,-7.08686 -0.009,-9.71105 0.94634,-1.99471 3.18116,-4.10516 5.15336,-4.86655 3.44049,-1.32824 8.26178,-1.05004 11.30065,0.65208 2.91395,1.63216 4.26949,3.98863 4.48415,7.79525 0.19176,3.40063 -0.27155,5.19788 -1.93158,7.49297 -1.82449,2.52245 -4.50653,3.75148 -8.48372,3.88762 -1.92841,0.066 -3.69599,-0.0848 -4.78673,-0.40846 z m 7.94772,-3.58553 c 0.56861,-0.38267 1.43242,-1.40066 1.91958,-2.26218 0.76572,-1.35416 0.8657,-1.95701 0.73791,-4.44916 -0.18718,-3.6504 -1.24584,-5.36418 -3.89002,-6.29723 -3.25374,-1.14815 -6.5444,0.0333 -8.0773,2.90003 -0.92639,1.73246 -0.96794,6.13859 -0.0725,7.69067 0.74737,1.29545 2.08298,2.47917 3.355,2.97343 1.44851,0.56284 4.82846,0.2513 6.02735,-0.55556 z m 28.71981,3.50421 c -2.51913,-1.20326 -2.8533,-2.27149 -3.01097,-9.62521 -0.0936,-4.36465 -0.2839,-6.61033 -0.57487,-6.78366 -0.74199,-0.44201 -7.29679,-0.31321 -7.8017,0.15331 -0.32946,0.30441 -0.45803,2.68035 -0.45803,8.46428 l 0,8.04107 -2.09933,0 -2.09933,0 0,-8.04107 c 0,-5.78393 -0.12857,-8.15987 -0.45804,-8.46428 -0.25192,-0.23277 -1.12061,-0.42322 -1.93043,-0.42322 l -1.47239,0 0.11737,-1.49888 c 0.1153,-1.4724 0.14426,-1.50091 1.6392,-1.61333 0.83701,-0.0629 1.65026,-0.301 1.80722,-0.52902 0.15696,-0.22801 0.28801,-1.38152 0.29122,-2.56334 0.011,-4.0478 2.46356,-6.60372 6.79109,-7.07728 2.62731,-0.28751 3.59848,0.25087 3.44669,1.91072 -0.11593,1.26769 -0.13296,1.27942 -1.90045,1.30824 -1.17802,0.0192 -2.05378,0.25512 -2.57974,0.69492 -1.0176,0.8509 -1.64843,2.80409 -1.48787,4.60681 l 0.12564,1.41072 4.19866,0 4.19866,0 0.19085,-2.25532 0.19084,-2.25531 1.71764,-0.47259 c 2.66811,-0.73411 2.6282,-0.76675 2.75124,2.24996 l 0.11148,2.73326 2.67188,0.0398 2.67187,0.0398 0.11295,1.7473 0.11295,1.74731 -2.30866,-0.1543 c -3.46177,-0.23136 -3.45184,-0.24911 -3.45184,6.16886 0,5.47643 0.20695,6.50399 1.49371,7.41683 0.73486,0.52131 2.95034,0.58849 3.2775,0.0994 0.58932,-0.88106 0.98549,-0.21564 0.87876,1.47601 l -0.11537,1.8287 -2.86272,0.12575 c -2.20407,0.0968 -3.16711,-0.0196 -4.18568,-0.50615 z m -168.7228,-13.85216 0,-14.1388 3.48634,0.1014 3.48634,0.10141 4.39998,10.31584 c 3.1931,7.4863 4.56632,10.31576 5.00641,10.31552 0.43681,-2.3e-4 1.82565,-2.78679 4.96571,-9.96316 2.39761,-5.47957 4.52274,-10.16123 4.72252,-10.40369 0.23967,-0.29089 1.45095,-0.44085 3.56091,-0.44085 l 3.19768,0 0,14.12474 0,14.12474 -2.19475,-0.10577 -2.19476,-0.10577 -0.0966,-10.40401 c -0.0531,-5.72221 -0.18827,-10.63058 -0.3003,-10.90748 -0.41902,-1.03579 -1.27284,0.6127 -5.69512,10.99565 l -4.4688,10.49218 -1.44795,0 c -0.79638,0 -1.61401,-0.19838 -1.81695,-0.44085 -0.20295,-0.24246 -2.31189,-4.96395 -4.68653,-10.49218 -4.29348,-9.99535 -4.75533,-10.93304 -5.38497,-10.93304 -0.1812,0 -0.37487,4.88019 -0.43039,10.84487 l -0.10094,10.84486 -2.0039,0.1066 -2.00391,0.1066 0,-14.13881 z m 39.02252,4.13878 0.10136,-9.96317 1.90848,0 1.90849,0 0.10136,9.96317 0.10138,9.96317 -2.11123,0 -2.11122,0 0.10138,-9.96317 z m 30.24471,9.53563 c -0.10614,-0.25557 -0.14716,-4.74735 -0.0912,-9.98173 l 0.10183,-9.51707 2.09933,0 c 2.05327,0 2.10179,0.0232 2.21117,1.05804 0.2222,2.10223 0.42222,2.16283 1.90998,0.57867 1.44584,-1.53951 3.45065,-2.29916 5.04873,-1.91302 0.62956,0.15212 0.75423,0.4863 0.75423,2.02168 l 0,1.83945 -2.00391,-0.15185 c -1.64127,-0.12437 -2.19524,-0.0123 -3.0612,0.61931 -2.11149,1.54007 -2.36139,2.44961 -2.56882,9.34951 l -0.19085,6.34821 -2.00817,0.10674 c -1.39609,0.0742 -2.067,-0.0349 -2.20116,-0.35794 z M 275,480.38006 l 0,-11.28571 11.9471,0 c 8.78326,0 12.06839,0.11207 12.40513,0.42321 0.33535,0.30986 0.45804,3.18337 0.45804,10.72785 0,5.66755 -0.10426,10.55568 -0.23169,10.8625 -0.20456,0.49256 -1.65665,0.55787 -12.40513,0.55787 l -12.17345,0 0,-11.28572 z m 107.9035,2.42956 c -1.76418,-0.94828 -1.4657,-3.50751 0.48226,-4.13494 1.43796,-0.46317 3.27466,0.30177 3.59995,1.49927 0.57324,2.11034 -1.98576,3.76255 -4.08221,2.63567 z"
         id="path4153"
         inkscape:connector-curvature="0" />
      <path
         style="fill:#706d6e"
         d="m 397.25162,506.81356 c -4.15073,-1.51816 -6.52802,-5.5219 -6.09731,-10.26884 0.38532,-4.24671 2.26481,-6.99799 5.91064,-8.65222 1.90153,-0.86279 2.61225,-0.98687 5.6125,-0.9799 4.41823,0.0103 5.1529,0.36288 5.1529,2.47317 0,1.76539 -0.0343,1.78104 -2.29017,1.04563 -2.06582,-0.67345 -3.47909,-0.66893 -5.25538,0.0168 -1.88614,0.72817 -3.0945,1.80265 -3.94731,3.50996 -1.34402,2.69072 -0.63186,7.02087 1.4334,8.71534 2.08832,1.7134 5.37888,2.11538 8.07189,0.98606 1.86004,-0.78001 2.13041,-0.5743 1.91905,1.46011 -0.16415,1.57994 -1.5413,2.16141 -5.46607,2.30793 -2.39861,0.0895 -3.48053,-0.0422 -5.04414,-0.61407 z m 35.389,0.18083 c -2.39717,-0.68775 -4.35123,-2.30551 -5.57395,-4.61467 -0.89263,-1.68576 -1.04134,-2.40565 -1.03665,-5.01847 0.007,-3.69471 0.981,-6.11419 3.21246,-7.97692 2.3492,-1.96101 3.86755,-2.42622 7.9785,-2.44452 3.07885,-0.0137 3.88534,0.10838 5.34375,0.80895 2.34697,1.1274 2.9734,1.6928 4.14449,3.74068 0.90488,1.58235 1.00841,2.14357 1.00841,5.46651 0,3.34748 -0.0995,3.87753 -1.03652,5.51901 -1.93466,3.3893 -5.30671,5.08663 -10.00653,5.03679 -1.27398,-0.0135 -3.08926,-0.24632 -4.03396,-0.51736 z m 7.93603,-3.56476 c 1.75953,-1.18417 2.75147,-3.45444 2.75147,-6.29734 0,-3.3604 -1.04697,-5.33037 -3.42072,-6.43638 -0.9367,-0.43644 -2.23147,-0.79353 -2.87727,-0.79353 -1.90169,0 -4.4711,1.41003 -5.40328,2.96518 -2.33889,3.90195 -0.96674,9.4756 2.71248,11.01811 1.59454,0.66851 4.92859,0.42474 6.23732,-0.45604 z m 12.48473,3.62903 c -1.50388,-0.4171 -1.52851,-0.45108 -1.64216,-2.26531 -0.0634,-1.01302 -0.0469,-1.84186 0.0368,-1.84186 0.0837,0 0.73678,0.27242 1.45131,0.60538 0.71454,0.33296 2.44021,0.66732 3.83484,0.74303 2.18689,0.11871 2.6463,0.0354 3.33985,-0.60538 0.97729,-0.903 1.04549,-2.55293 0.13619,-3.29463 -0.36738,-0.29966 -2.06689,-1.19049 -3.77668,-1.97961 -1.70979,-0.78912 -3.46166,-1.84935 -3.89303,-2.35607 -2.13489,-2.50774 -1.03125,-6.60356 2.23053,-8.2779 1.45979,-0.74933 2.21036,-0.88158 4.99983,-0.88092 3.89842,10e-4 4.54259,0.33785 4.54259,2.37593 0,1.35935 -0.0367,1.40031 -1.04967,1.1704 -0.57732,-0.13104 -1.99436,-0.32375 -3.149,-0.42824 -1.76841,-0.16005 -2.26478,-0.0693 -3.14899,0.5754 -1.27539,0.93 -1.3942,2.43287 -0.26688,3.37553 0.43054,0.36 2.19111,1.29715 3.91239,2.08256 2.80179,1.27842 3.22403,1.60391 4.03108,3.10738 0.74205,1.38237 0.85353,1.97484 0.63036,3.34995 -0.32772,2.0192 -2.26724,3.93309 -4.65587,4.59434 -1.92523,0.53296 -5.54793,0.50902 -7.56347,-0.05 z m 22.31755,-0.0435 c -2.42721,-0.72018 -4.67312,-2.61877 -5.72761,-4.84186 -1.24959,-2.63438 -1.25349,-7.08686 -0.009,-9.71105 0.94634,-1.99471 3.18116,-4.10516 5.15336,-4.86655 3.44049,-1.32824 8.26178,-1.05004 11.30065,0.65208 2.91395,1.63216 4.26949,3.98863 4.48415,7.79525 0.19176,3.40063 -0.27155,5.19788 -1.93158,7.49297 -1.82449,2.52245 -4.50653,3.75148 -8.48372,3.88762 -1.92841,0.066 -3.69599,-0.0848 -4.78673,-0.40846 z m 7.94772,-3.58553 c 0.56861,-0.38267 1.43242,-1.40066 1.91958,-2.26218 0.76572,-1.35416 0.8657,-1.95701 0.73791,-4.44916 -0.18718,-3.6504 -1.24584,-5.36418 -3.89002,-6.29723 -3.25374,-1.14815 -6.5444,0.0333 -8.0773,2.90003 -0.92639,1.73246 -0.96794,6.13859 -0.0725,7.69067 0.74737,1.29545 2.08298,2.47917 3.355,2.97343 1.44851,0.56284 4.82846,0.2513 6.02735,-0.55556 z m 28.71981,3.50421 c -2.51913,-1.20326 -2.8533,-2.27149 -3.01097,-9.62521 -0.0936,-4.36465 -0.2839,-6.61033 -0.57487,-6.78366 -0.74199,-0.44201 -7.29679,-0.31321 -7.8017,0.15331 -0.32946,0.30441 -0.45803,2.68035 -0.45803,8.46428 l 0,8.04107 -2.09933,0 -2.09933,0 0,-8.04107 c 0,-5.78393 -0.12857,-8.15987 -0.45804,-8.46428 -0.25192,-0.23277 -1.12061,-0.42322 -1.93043,-0.42322 l -1.47239,0 0.11737,-1.49888 c 0.1153,-1.4724 0.14426,-1.50091 1.6392,-1.61333 0.83701,-0.0629 1.65026,-0.301 1.80722,-0.52902 0.15696,-0.22801 0.28801,-1.38152 0.29122,-2.56334 0.011,-4.0478 2.46356,-6.60372 6.79109,-7.07728 2.62731,-0.28751 3.59848,0.25087 3.44669,1.91072 -0.11593,1.26769 -0.13296,1.27942 -1.90045,1.30824 -1.17802,0.0192 -2.05378,0.25512 -2.57974,0.69492 -1.0176,0.8509 -1.64843,2.80409 -1.48787,4.60681 l 0.12564,1.41072 4.19866,0 4.19866,0 0.19085,-2.25532 0.19084,-2.25531 1.71764,-0.47259 c 2.66811,-0.73411 2.6282,-0.76675 2.75124,2.24996 l 0.11148,2.73326 2.67188,0.0398 2.67187,0.0398 0.11295,1.7473 0.11295,1.74731 -2.30866,-0.1543 c -3.46177,-0.23136 -3.45184,-0.24911 -3.45184,6.16886 0,5.47643 0.20695,6.50399 1.49371,7.41683 0.73486,0.52131 2.95034,0.58849 3.2775,0.0994 0.58932,-0.88106 0.98549,-0.21564 0.87876,1.47601 l -0.11537,1.8287 -2.86272,0.12575 c -2.20407,0.0968 -3.16711,-0.0196 -4.18568,-0.50615 z m -168.7228,-13.85216 0,-14.1388 3.48634,0.1014 3.48634,0.10141 4.39998,10.31584 c 3.1931,7.4863 4.56632,10.31576 5.00641,10.31552 0.43681,-2.3e-4 1.82565,-2.78679 4.96571,-9.96316 2.39761,-5.47957 4.52274,-10.16123 4.72252,-10.40369 0.23967,-0.29089 1.45095,-0.44085 3.56091,-0.44085 l 3.19768,0 0,14.12474 0,14.12474 -2.19475,-0.10577 -2.19476,-0.10577 -0.0966,-10.40401 c -0.0531,-5.72221 -0.18827,-10.63058 -0.3003,-10.90748 -0.41902,-1.03579 -1.27284,0.6127 -5.69512,10.99565 l -4.4688,10.49218 -1.44795,0 c -0.79638,0 -1.61401,-0.19838 -1.81695,-0.44085 -0.20295,-0.24246 -2.31189,-4.96395 -4.68653,-10.49218 -4.29348,-9.99535 -4.75533,-10.93304 -5.38497,-10.93304 -0.1812,0 -0.37487,4.88019 -0.43039,10.84487 l -0.10094,10.84486 -2.0039,0.1066 -2.00391,0.1066 0,-14.13881 z m 39.02252,4.13878 0.10136,-9.96317 1.90848,0 1.90849,0 0.10136,9.96317 0.10138,9.96317 -2.11123,0 -2.11122,0 0.10138,-9.96317 z m 30.24471,9.53563 c -0.10614,-0.25557 -0.14716,-4.74735 -0.0912,-9.98173 l 0.10183,-9.51707 2.09933,0 c 2.05327,0 2.10179,0.0232 2.21117,1.05804 0.2222,2.10223 0.42222,2.16283 1.90998,0.57867 1.44584,-1.53951 3.45065,-2.29916 5.04873,-1.91302 0.62956,0.15212 0.75423,0.4863 0.75423,2.02168 l 0,1.83945 -2.00391,-0.15185 c -1.64127,-0.12437 -2.19524,-0.0123 -3.0612,0.61931 -2.11149,1.54007 -2.36139,2.44961 -2.56882,9.34951 l -0.19085,6.34821 -2.00817,0.10674 c -1.39609,0.0742 -2.067,-0.0349 -2.20116,-0.35794 z M 382.9035,482.80962 c -1.76418,-0.94828 -1.4657,-3.50751 0.48226,-4.13494 1.43796,-0.46317 3.27466,0.30177 3.59995,1.49927 0.57324,2.11034 -1.98576,3.76255 -4.08221,2.63567 z"
         id="path4151"
         inkscape:connector-curvature="0" />
    </g>
  </g>
</svg>
