<?xml version="1.0" encoding="UTF-8" standalone="no"?>
<!-- Created with Inkscape (http://www.inkscape.org/) -->

<svg
   xmlns:dc="http://purl.org/dc/elements/1.1/"
   xmlns:cc="http://creativecommons.org/ns#"
   xmlns:rdf="http://www.w3.org/1999/02/22-rdf-syntax-ns#"
   xmlns:svg="http://www.w3.org/2000/svg"
   xmlns="http://www.w3.org/2000/svg"
   xmlns:sodipodi="http://sodipodi.sourceforge.net/DTD/sodipodi-0.dtd"
   xmlns:inkscape="http://www.inkscape.org/namespaces/inkscape"
   width="485"
   height="120"
   viewBox="0 0 485.00001 120"
   id="svg2"
   version="1.1"
   inkscape:version="0.91 r13725"
   sodipodi:docname="logotype_kernel4task.svg"
   inkscape:export-filename="/home/william/kernel4task/website/kernel4task/assets/images/svg_logo.svg.png"
   inkscape:export-xdpi="39"
   inkscape:export-ydpi="39">
  <defs
     id="defs4" />
  <sodipodi:namedview
     id="base"
     pagecolor="#ffffff"
     bordercolor="#666666"
     borderopacity="1.0"
     inkscape:pageopacity="0.0"
     inkscape:pageshadow="2"
     inkscape:zoom="0.35"
     inkscape:cx="108.55807"
     inkscape:cy="154.85321"
     inkscape:document-units="px"
     inkscape:current-layer="layer1"
     showgrid="false"
     inkscape:window-width="857"
     inkscape:window-height="373"
     inkscape:window-x="450"
     inkscape:window-y="172"
     inkscape:window-maximized="0"
     units="px" />
  <metadata
     id="metadata7">
    <rdf:RDF>
      <cc:Work
         rdf:about="">
        <dc:format>image/svg+xml</dc:format>
        <dc:type
           rdf:resource="http://purl.org/dc/dcmitype/StillImage" />
        <dc:title />
      </cc:Work>
    </rdf:RDF>
  </metadata>
  <g
     inkscape:label="Camada 1"
     inkscape:groupmode="layer"
     id="layer1"
     transform="translate(0,-932.3622)">
    <path
       style="fill:#800000;fill-opacity:0.96518987;stroke:none"
       d="m 257.29704,1047.021 c -161.624418,1.8241 -80.81221,0.9121 0,0 z M 142.20176,992.24131 c 0.50001,-33.1336 -0.18092,-47.6901 -2.33806,-49.9821 -2.3561,-2.5033 -9.56878,-3.0879 -31.93263,-2.5881 l -28.889112,0.6457 0,39.0101 c 0,38.70789 0.04542,39.01579 5.8551,39.74349 5.842077,0.7316 5.855091,0.6589 5.855091,-32.69979 l 0,-33.4329 19.516981,0 19.51697,0 0,37.8628 0,37.86279 -44.238481,0 -44.238483,0 0,-32.28559 c 0,-32.1689 -0.02122,-32.283 -5.855091,-31.5524 -5.736184,0.7184 -5.869766,1.4303 -6.578297,35.0532 -0.397773,18.87599 -0.13282,35.67669 0.588821,37.33499 1.038655,2.3868 12.846402,2.8858 56.671871,2.3955 l 55.35986,-0.6195 z m 54.66421,42.02869 c 10.5806,-6.5352 5.17826,-16.9772 -10.48061,-20.2579 -8.94044,-1.873 -9.38796,-6.0012 -0.65058,-6.0012 3.57812,0 6.50567,1.0325 6.50567,2.2947 0,1.2621 1.75653,2.2947 3.9034,2.2947 4.68475,0 5.12265,-4.891 0.78067,-8.7198 -4.32775,-3.8164 -19.00108,-3.4544 -22.78106,0.562 -5.72833,6.0865 -2.18901,13.6758 7.68792,16.4851 10.33617,2.9401 14.09235,10.0304 5.31367,10.0304 -3.01234,0 -6.15105,-1.5489 -6.97489,-3.4421 -1.65748,-3.8088 -11.35009,-4.7885 -11.35009,-1.1472 0,4.2141 10.33565,11.4734 16.3357,11.4734 3.25965,0 8.52923,-1.6074 11.7102,-3.5721 z m 38.52509,-1.7444 7.00912,-5.3164 6.02901,5.3164 c 17.40051,15.344 42.4956,-7.8634 27.12988,-25.0892 -5.61769,-6.2975 -18.18377,-8.58379 -25.02868,-4.5535 -4.22703,2.489 -8.84693,11.0419 -8.84693,16.3786 0,3.1951 -1.2249,4.2538 -3.88146,3.3549 -2.17222,-0.735 -4.55269,0.2291 -5.40572,2.1894 -2.12279,4.8779 -8.89515,6.7388 -13.16191,3.6161 -5.00379,-3.662 -4.63741,-17.9003 0.50541,-19.6406 2.24339,-0.7591 6.81202,-0.09 10.15242,1.4861 8.90461,4.2022 12.72984,2.2411 7.78092,-3.9896 -2.80253,-3.5283 -6.70955,-5.14 -12.40136,-5.1159 -10.59963,0.045 -13.81026,1.924 -17.3624,10.1626 -3.71607,8.6189 -1.11902,18.7163 5.93427,23.0727 7.77017,4.7992 13.39715,4.3105 21.54743,-1.8716 z m 19.4448,-4.8597 c -1.70415,-1.8108 -2.7258,-6.7157 -2.27034,-10.9 0.73595,-6.7609 1.69708,-7.6077 8.63492,-7.6077 6.93784,0 7.89897,0.8468 8.63491,7.6077 0.85889,7.8905 -2.9752,14.1921 -8.63491,14.1921 -1.79638,0 -4.66043,-1.4815 -6.36458,-3.2921 z m 140.38116,5.5868 c 9.68848,-8.5434 5.17537,-12.2749 -6.61025,-5.4653 -5.17654,2.991 -7.18408,3.1594 -10.31749,0.8663 -6.79031,-4.9694 -4.26257,-6.8745 9.12095,-6.8745 11.80491,0 13.01132,-0.4846 13.01132,-5.2262 0,-9.0117 -7.09479,-15.4263 -17.06225,-15.4263 -11.86204,0 -19.36944,6.7111 -19.36944,17.3147 0,15.7608 19.60517,25.0598 31.22716,14.8113 z m -20.18057,-21.226 c 1.60517,-4.2981 11.06131,-4.7333 14.87183,-0.6845 2.91622,3.0986 2.11078,3.5528 -6.29967,3.5528 -6.55122,0 -9.29992,-0.9198 -8.57216,-2.8683 z m 59.21453,21.226 c 6.1403,-5.4146 6.8274,-11.4735 1.30113,-11.4735 -2.14688,0 -3.9034,0.9963 -3.9034,2.2139 0,1.2177 -2.4169,3.3547 -5.37086,4.7487 -9.64396,4.5513 -16.29454,-5.5445 -11.26543,-17.1012 1.99244,-4.5786 11.2324,-4.7201 15.04829,-0.2304 1.95834,2.304 4.11334,2.7189 6.68906,1.2874 5.93319,-3.2974 -3.90329,-11.5709 -13.75683,-11.5709 -11.65724,0 -17.36686,5.7751 -17.36686,17.5661 0,11.5644 6.69976,19.1493 16.91471,19.1493 3.57811,0 8.8477,-2.0652 11.71019,-4.5894 z m 24.96549,1.9466 c 1.01874,-1.4536 -0.0833,-3.8907 -2.44868,-5.4161 -5.64448,-3.6396 -5.94501,-20.725 -0.39757,-22.6022 2.14686,-0.7264 3.9034,-2.3858 3.9034,-3.6876 0,-1.3017 -1.75654,-2.3667 -3.9034,-2.3667 -2.41554,0 -3.9034,-2.15919 -3.9034,-5.66469 0,-4.0927 -1.08334,-5.2983 -3.90339,-4.344 -2.14687,0.7265 -3.9034,3.2756 -3.9034,5.6647 0,2.3892 -1.17102,4.34399 -2.60225,4.34399 -1.43126,0 -2.60227,1.549 -2.60227,3.4421 0,1.8931 1.17101,3.4421 2.60227,3.4421 1.43123,0 2.60225,5.6281 2.60225,12.5068 0,9.4906 1.0983,13.071 4.55397,14.8459 5.95532,3.0588 7.7644,3.0291 10.00247,-0.1643 z m -295.60093,-16.8622 c 0,-13.7683 -0.78068,-17.2104 -3.9034,-17.2104 -3.12271,0 -3.9034,3.4421 -3.9034,17.2104 0,13.7682 0.78069,17.2103 3.9034,17.2103 3.12272,0 3.9034,-3.4421 3.9034,-17.2103 z m 130.6339,4.0158 c 0.73111,-12.361 1.19148,-13.1947 7.28608,-13.1947 6.09461,0 6.55499,0.8337 7.28608,13.1947 0.5726,9.6804 1.78544,13.1945 4.55396,13.1945 5.07461,0 5.38999,-28.0863 0.35675,-31.7699 -1.87923,-1.3752 -8.90533,-2.4033 -15.61357,-2.2846 l -12.1968,0.2158 0,16.9195 c 0,13.2508 0.81819,16.9192 3.77354,16.9192 2.76854,0 3.98135,-3.5141 4.55396,-13.1945 z m 41.63622,0 c 0.69135,-11.6887 1.44873,-13.2783 6.63551,-13.9279 5.52018,-0.6913 5.85511,0.064 5.85511,13.1945 0,12.3981 0.57166,13.9279 5.20451,13.9279 4.58114,0 5.20453,-1.5298 5.20453,-12.7718 0,-18.9794 -2.48339,-21.6825 -19.60088,-21.3344 l -14.22853,0.289 0,16.9087 c 0,15.2345 0.50241,16.9085 5.07466,16.9085 4.35252,0 5.18572,-1.8776 5.85509,-13.1945 z M 163.61554,991.94791 c 0,-2.5498 -1.73484,-4.5895 -3.9034,-4.5895 -2.16856,0 -3.9034,2.0397 -3.9034,4.5895 0,2.5496 1.73484,4.5893 3.9034,4.5893 2.16856,0 3.9034,-2.0397 3.9034,-4.5893 z M 41.309136,955.23241 c 0,-3.3656 -1.734831,-4.5895 -6.505661,-4.5895 -4.77082,0 -6.50566,1.2239 -6.50566,4.5895 0,3.3655 1.73484,4.5894 6.50566,4.5894 4.77083,0 6.505661,-1.2239 6.505661,-4.5894 z"
       id="path4147"
       inkscape:connector-curvature="0"
       sodipodi:nodetypes="ccssscssscccccccssscscssssssssssssssscsssssssscssssssssssssssssssssssssssssssssssccsssscsssssscsssssssssssscssssssssscssssssssssss" />
  </g>
</svg>
